<?xml version="1.0" encoding="UTF-8"?>
<svg version="1.1" xmlns="http://www.w3.org/2000/svg" width="500" height="500">

<path d="M0 0 C0.1567564 7.71589817 -0.32546899 15.31516461 -1 23 C-3.4375 22.1875 -3.4375 22.1875 -6 21 C-6.33 20.01 -6.66 19.02 -7 18 C-9.63630949 20.5342588 -11.8738696 23.0464248 -13.9375 26.0625 C-14.53949219 26.93777344 -15.14148438 27.81304687 -15.76171875 28.71484375 C-16.50035156 29.79894531 -17.23898437 30.88304687 -18 32 C-18.9853498 33.43902624 -19.97105468 34.87780938 -20.95703125 36.31640625 C-25.3736822 42.76465007 -29.78808575 49.21435001 -34.1796875 55.6796875 C-35.16141081 57.11982406 -36.14317938 58.55992977 -37.125 60 C-37.57391602 60.66402832 -38.02283203 61.32805664 -38.48535156 62.01220703 C-40.48260099 64.93603917 -42.50271898 67.50734825 -45 70 C-46.03447196 71.64549249 -47.02947678 73.31599808 -48 75 C-49.38895719 77.29608621 -50.79742091 79.55823798 -52.25 81.8125 C-52.60707031 82.40998047 -52.96414063 83.00746094 -53.33203125 83.62304688 C-54.453125 85.33203125 -54.453125 85.33203125 -57 88 C-61.64951148 88.65284237 -65.529033 87.78421392 -70 86.5 C-76.43074776 84.71256532 -76.43074776 84.71256532 -83 85 C-85.35336406 87.07958161 -87.12372945 89.49478242 -89 92 C-90.66666667 93.66666667 -92.33333333 95.33333333 -94 97 C-95.57699865 98.63194634 -97.13816577 100.27926688 -98.6875 101.9375 C-99.83798828 103.15759766 -99.83798828 103.15759766 -101.01171875 104.40234375 C-103.16518279 107.21580856 -104.00415322 109.62518591 -105 113 C-107.06049038 116.19731265 -108.06754292 117.72450132 -111.75 118.8125 C-112.4925 118.874375 -113.235 118.93625 -114 119 C-114.33 118.34 -114.66 117.68 -115 117 C-115.66 117.99 -116.32 118.98 -117 120 C-117.33 120 -117.66 120 -118 120 C-118.33 128.58 -118.66 137.16 -119 146 C-121.97 146 -124.94 146 -128 146 C-128.02505615 145.32420898 -128.0501123 144.64841797 -128.07592773 143.95214844 C-128.19210742 140.8845832 -128.31473437 137.81730842 -128.4375 134.75 C-128.47681641 133.68652344 -128.51613281 132.62304688 -128.55664062 131.52734375 C-128.59853516 130.50253906 -128.64042969 129.47773438 -128.68359375 128.421875 C-128.72025146 127.47924805 -128.75690918 126.53662109 -128.79467773 125.56542969 C-128.97939228 123.25748623 -129.35861612 121.21859476 -130 119 C-131.58093717 118.8642325 -133.16526952 118.76765255 -134.75 118.6875 C-135.63171875 118.62949219 -136.5134375 118.57148438 -137.421875 118.51171875 C-140.13471609 118.81831447 -140.13471609 118.81831447 -142.28125 120.8125 C-144.83176086 125.54253833 -144.67544002 130.01535222 -144.75 135.3125 C-144.77964844 136.33923828 -144.80929688 137.36597656 -144.83984375 138.42382812 C-144.91032194 140.94929675 -144.9631266 143.47385415 -145 146 C-147.97 146 -150.94 146 -154 146 C-154 129.17 -154 112.34 -154 95 C-151.03 95 -148.06 95 -145 95 C-144.67 101.27 -144.34 107.54 -144 114 C-142.02 112.68 -140.04 111.36 -138 110 C-135.0078125 109.171875 -135.0078125 109.171875 -132.125 108.75 C-131.15820312 108.60046875 -130.19140625 108.4509375 -129.1953125 108.296875 C-128.47085937 108.19890625 -127.74640625 108.1009375 -127 108 C-127.33 106.35 -127.66 104.7 -128 103 C-125.525 102.505 -125.525 102.505 -123 102 C-124.87702327 97.10437307 -124.87702327 97.10437307 -128 93 C-129.32 93 -130.64 93 -132 93 C-131.98839844 93.62648438 -131.97679687 94.25296875 -131.96484375 94.8984375 C-131.95582031 95.71570313 -131.94679688 96.53296875 -131.9375 97.375 C-131.92589844 98.18710938 -131.91429687 98.99921875 -131.90234375 99.8359375 C-132 102 -132 102 -133 104 C-133.66 104 -134.32 104 -135 104 C-135.02705729 102.22925083 -135.04642195 100.45838289 -135.0625 98.6875 C-135.07410156 97.70136719 -135.08570313 96.71523437 -135.09765625 95.69921875 C-135 93 -135 93 -134 90 C-134.99 90 -135.98 90 -137 90 C-136.34 86.37 -135.68 82.74 -135 79 C-133.515 78.505 -133.515 78.505 -132 78 C-132 75.69 -132 73.38 -132 71 C-133.11375 72.175625 -133.11375 72.175625 -134.25 73.375 C-137 76 -137 76 -139.1875 77 C-141.77553894 78.42788355 -141.96704862 80.28850262 -143 83 C-145.125 85.3125 -145.125 85.3125 -147 87 C-147.33 86.01 -147.66 85.02 -148 84 C-147.34 84 -146.68 84 -146 84 C-145.773125 83.278125 -145.54625 82.55625 -145.3125 81.8125 C-143.75358681 78.47197174 -141.59053053 76.59053053 -139 74 C-138.13880866 71.82653432 -138.13880866 71.82653432 -138 70 C-137.34 70 -136.68 70 -136 70 C-135.505 68.515 -135.505 68.515 -135 67 C-125.99446669 68.0684531 -120.03648439 72.70316304 -113 78 C-112.06542969 78.68578125 -111.13085938 79.3715625 -110.16796875 80.078125 C-105.62833024 83.48106662 -105.62833024 83.48106662 -104 85 C-104 85.66 -104 86.32 -104 87 C-101.03 87.495 -101.03 87.495 -98 88 C-98.1546875 86.948125 -98.1546875 86.948125 -98.3125 85.875 C-97.94604228 82.50358897 -96.71160713 81.33014392 -94.54418945 78.83740234 C-90.79510876 74.37644088 -87.49758692 69.5318325 -84.08398438 64.8125 C-83.48779297 63.99523437 -82.89160156 63.17796875 -82.27734375 62.3359375 C-81.47671509 61.23064697 -81.47671509 61.23064697 -80.65991211 60.10302734 C-78.90381309 57.8781359 -77.10691672 55.89716265 -75 54 C-74.34 54 -73.68 54 -73 54 C-72.34 53.01 -71.68 52.02 -71 51 C-71 54.3 -71 57.6 -71 61 C-71.66 60.34 -72.32 59.68 -73 59 C-76.57920299 61.26682856 -77.54534458 63.09061356 -79 67 C-81.31172137 70.85286895 -83.35333621 73.42139674 -87 76 C-83.60641656 76.84268087 -80.20980915 77.67247901 -76.8125 78.5 C-75.85279297 78.73847656 -74.89308594 78.97695312 -73.90429688 79.22265625 C-72.50727539 79.56103516 -72.50727539 79.56103516 -71.08203125 79.90625 C-70.22843018 80.11572266 -69.3748291 80.32519531 -68.49536133 80.54101562 C-65.87584116 81.02283716 -63.65244217 81.29412331 -61 81 C-60.01 79.515 -60.01 79.515 -59 78 C-58.34 78 -57.68 78 -57 78 C-56.9278125 77.47277344 -56.855625 76.94554687 -56.78125 76.40234375 C-55.67567281 73.00269389 -53.60835414 70.40042778 -51.5 67.5625 C-50.59021252 66.31578471 -49.68138022 65.06837191 -48.7734375 63.8203125 C-48.31163086 63.18770508 -47.84982422 62.55509766 -47.37402344 61.90332031 C-44.50938803 57.93517929 -41.76924536 53.88009515 -39.0078125 49.83984375 C-37 47 -37 47 -34.9921875 44.56640625 C-33.11468614 42.14774274 -31.68101833 39.67037649 -30.20068359 36.99853516 C-27.71102237 32.85449962 -24.71265825 29.04943028 -21.8125 25.1875 C-20.54686258 23.49447145 -19.28247516 21.80050751 -18.01953125 20.10546875 C-17.46370361 19.36449951 -16.90787598 18.62353027 -16.33520508 17.86010742 C-14.95334414 16.03857485 -14.95334414 16.03857485 -14 14 C-14.804375 13.7525 -15.60875 13.505 -16.4375 13.25 C-19 12 -19 12 -19.8125 9.875 C-19.874375 9.25625 -19.93625 8.6375 -20 8 C-16.91190305 6.23537317 -15.76687864 6 -12 6 C-12 5.34 -12 4.68 -12 4 C-10.18821242 3.33139964 -8.37554984 2.66516988 -6.5625 2 C-5.55316406 1.62875 -4.54382813 1.2575 -3.50390625 0.875 C-1 0 -1 0 0 0 Z " fill="#EAEEF0" transform="translate(400,110)"/>
<path d="M0 0 C0.99 0.33 1.98 0.66 3 1 C4.03101947 3.31979381 5.02936517 5.65429915 6 8 C7.53951047 9.88029239 7.53951047 9.88029239 9 11 C8.34 11 7.68 11 7 11 C7 11.66 7 12.32 7 13 C17.67665681 13.29318331 17.67665681 13.29318331 28.1328125 11.4375 C30 11 30 11 34 11 C34 11.99 34 12.98 34 14 C32.70964844 14.18175781 31.41929687 14.36351562 30.08984375 14.55078125 C28.37232179 14.80418613 26.65487789 15.05812052 24.9375 15.3125 C24.08994141 15.43044922 23.24238281 15.54839844 22.36914062 15.66992188 C17.1219698 16.4600364 12.77953305 17.68481235 8 20 C8.495 20.99 8.495 20.99 9 22 C11.02463255 22.65213292 11.02463255 22.65213292 13 23 C13 23.66 13 24.32 13 25 C14.485 25.495 14.485 25.495 16 26 C13 27 13 27 11.17578125 26.22265625 C9.45052083 25.1484375 7.72526042 24.07421875 6 23 C5.01 24.485 5.01 24.485 4 26 C2.68 25.34 1.36 24.68 0 24 C0.04125 25.155 0.0825 26.31 0.125 27.5 C0.14817815 34.71999473 -1.01904802 41.86182267 -2 49 C-2.33 49 -2.66 49 -3 49 C-3 42.07 -3 35.14 -3 28 C-7.39997042 29.0999926 -7.76041837 29.49112769 -10.2421875 32.97265625 C-10.83386719 33.79056641 -11.42554688 34.60847656 -12.03515625 35.45117188 C-12.94587891 36.7437793 -12.94587891 36.7437793 -13.875 38.0625 C-15.08046384 39.74107599 -16.28619062 41.41946319 -17.4921875 43.09765625 C-18.07629395 43.91959473 -18.66040039 44.7415332 -19.26220703 45.58837891 C-21.38005658 48.52742327 -23.57844458 51.39925209 -25.80371094 54.25756836 C-27.46422302 56.67615504 -28.29265001 59.17060005 -29 62 C-34.52411914 61.61459634 -36.24971201 59.92075563 -40 56 C-42.45792454 54.16284821 -44.97255389 52.43380788 -47.51171875 50.7109375 C-49.63812077 49.24882748 -51.65529873 47.71222718 -53.6875 46.125 C-57.29615661 43.81001274 -59.78957271 43.41278699 -64 43 C-66.22189824 40.77810176 -66.92598892 38.91517292 -68 36 C-69.98 36 -71.96 36 -74 36 C-74.99 32.7 -75.98 29.4 -77 26 C-73.62294375 26.53725895 -70.303314 27.11064623 -67 28 C-67 29.98 -67 31.96 -67 34 C-59.78419127 35.02905863 -54.04643076 35.25225677 -47.15625 32.69140625 C-45 32 -45 32 -41 32 C-41 31.34 -41 30.68 -41 30 C-39.88818359 29.77957031 -39.88818359 29.77957031 -38.75390625 29.5546875 C-31.18903474 27.94356431 -24.07240793 25.75400723 -16.82641602 23.06982422 C-13.92181902 21.99951182 -11.15806734 21.02837106 -8.10546875 20.48046875 C-5.69940355 20.18683444 -5.69940355 20.18683444 -4.3125 17.4375 C-3.879375 16.633125 -3.44625 15.82875 -3 15 C-2.34 15 -1.68 15 -1 15 C-1 13.35 -1 11.7 -1 10 C-1.99 9.67 -2.98 9.34 -4 9 C-3.35455571 5.51460083 -1.89865603 2.97180943 0 0 Z " fill="#D8DCDB" transform="translate(331,136)"/>
<path d="M0 0 C4.14541458 2.85257905 7.4014944 6.09594606 8.59765625 11.05859375 C8.71109375 11.81011719 8.82453125 12.56164062 8.94140625 13.3359375 C5.23401367 13.61918481 1.63817802 13.79598021 -2.05859375 13.3359375 C-4.05859375 10.8984375 -4.05859375 10.8984375 -5.05859375 8.3359375 C-10.26478637 6.60053996 -17.03435003 5.89582144 -22.109375 8.3125 C-24.91436235 10.58154684 -26.77109731 13.00461262 -28.05859375 16.3359375 C-28.74542542 23.65916871 -29.13912585 31.00407734 -25.05859375 37.3359375 C-19.52012954 41.46282853 -13.70095034 41.23239951 -7.05859375 40.3359375 C-2.4538589 37.2968125 -0.92691237 33.35089801 0.94140625 28.3359375 C-3.34859375 28.3359375 -7.63859375 28.3359375 -12.05859375 28.3359375 C-12.05859375 26.0259375 -12.05859375 23.7159375 -12.05859375 21.3359375 C-4.79859375 21.3359375 2.46140625 21.3359375 9.94140625 21.3359375 C9.94140625 30.5759375 9.94140625 39.8159375 9.94140625 49.3359375 C6.97140625 49.3359375 4.00140625 49.3359375 0.94140625 49.3359375 C0.61140625 47.6859375 0.28140625 46.0359375 -0.05859375 44.3359375 C-1.11046875 45.2640625 -1.11046875 45.2640625 -2.18359375 46.2109375 C-7.41712358 50.07919868 -12.63207698 51.06302516 -19.05859375 50.3359375 C-26.12834792 48.99512205 -30.62723723 45.97146698 -35.05859375 40.3359375 C-39.53524001 33.02408194 -40.13730481 24.32327871 -38.6328125 15.97265625 C-36.6293389 8.85602305 -32.32144766 3.68822753 -26.37109375 -0.6015625 C-18.29522425 -4.31209713 -7.86143647 -4.08273496 0 0 Z " fill="#DF4856" transform="translate(344.05859375,209.6640625)"/>
<path d="M0 0 C3.99330712 2.79385224 6.58607761 5.55758714 7.9453125 10.3671875 C8.0071875 11.0684375 8.0690625 11.7696875 8.1328125 12.4921875 C4.75229401 12.7824992 1.50340716 12.93806144 -1.8671875 12.4921875 C-4.3046875 10.0546875 -4.3046875 10.0546875 -5.8671875 7.4921875 C-11.31331384 5.67681205 -17.48049058 5.59717615 -22.8671875 7.6171875 C-26.39502955 10.92453942 -27.73527614 14.37985388 -28.30078125 19.1484375 C-28.30207031 20.416875 -28.30335937 21.6853125 -28.3046875 22.9921875 C-28.32402344 24.260625 -28.34335937 25.5290625 -28.36328125 26.8359375 C-27.6688315 31.95408686 -25.55333258 35.0870666 -21.6171875 38.3671875 C-16.59178111 40.42303557 -12.49481869 40.10638795 -7.5546875 38.2421875 C-2.78922243 35.13909397 -1.45681483 31.87246461 0.1328125 26.4921875 C-3.8271875 26.4921875 -7.7871875 26.4921875 -11.8671875 26.4921875 C-11.8671875 24.5121875 -11.8671875 22.5321875 -11.8671875 20.4921875 C-4.9371875 20.4921875 1.9928125 20.4921875 9.1328125 20.4921875 C9.1328125 29.4021875 9.1328125 38.3121875 9.1328125 47.4921875 C6.1628125 47.4921875 3.1928125 47.4921875 0.1328125 47.4921875 C-0.1971875 45.8421875 -0.5271875 44.1921875 -0.8671875 42.4921875 C-2.259375 43.69875 -2.259375 43.69875 -3.6796875 44.9296875 C-8.05643691 48.72287033 -12.2572662 48.90607194 -17.8828125 48.82421875 C-23.85529739 48.15974072 -28.70882698 45.8829181 -32.75390625 41.40234375 C-37.94672125 34.04690362 -39.93479186 26.43337399 -38.8671875 17.4921875 C-36.90271219 10.01378716 -33.4140949 3.53852506 -26.90234375 -0.82421875 C-18.01870742 -5.43471355 -8.60273381 -4.89608966 0 0 Z " fill="#1D3E5A" transform="translate(83.8671875,208.5078125)"/>
<path d="M0 0 C0.1567564 7.71589817 -0.32546899 15.31516461 -1 23 C-3.4375 22.1875 -3.4375 22.1875 -6 21 C-6.495 19.515 -6.495 19.515 -7 18 C-9.63630949 20.5342588 -11.8738696 23.0464248 -13.9375 26.0625 C-14.53949219 26.93777344 -15.14148438 27.81304687 -15.76171875 28.71484375 C-16.50035156 29.79894531 -17.23898437 30.88304687 -18 32 C-18.9853498 33.43902624 -19.97105468 34.87780938 -20.95703125 36.31640625 C-25.3736822 42.76465007 -29.78808575 49.21435001 -34.1796875 55.6796875 C-35.16141081 57.11982406 -36.14317938 58.55992977 -37.125 60 C-37.57391602 60.66402832 -38.02283203 61.32805664 -38.48535156 62.01220703 C-40.48260099 64.93603917 -42.50271898 67.50734825 -45 70 C-46.03447196 71.64549249 -47.02947678 73.31599808 -48 75 C-49.38895719 77.29608621 -50.79742091 79.55823798 -52.25 81.8125 C-52.60707031 82.40998047 -52.96414063 83.00746094 -53.33203125 83.62304688 C-54.453125 85.33203125 -54.453125 85.33203125 -57 88 C-61.64951148 88.65284237 -65.529033 87.78421392 -70 86.5 C-76.43074776 84.71256532 -76.43074776 84.71256532 -83 85 C-85.35336406 87.07958161 -87.12372945 89.49478242 -89 92 C-90.66666667 93.66666667 -92.33333333 95.33333333 -94 97 C-95.57328986 98.67744494 -97.13481936 100.36596077 -98.6875 102.0625 C-99.45449219 102.89910156 -100.22148437 103.73570312 -101.01171875 104.59765625 C-102.76201794 106.71245782 -103.81607714 108.55881393 -105 111 C-106.62935241 112.37868281 -108.29749607 113.71274093 -110 115 C-111.0173873 115.98230498 -112.02596117 116.97469597 -113 118 C-114.25 114.8125 -114.25 114.8125 -115 111 C-113.25 108.0625 -113.25 108.0625 -111 106 C-110.34 106 -109.68 106 -109 106 C-108.76796875 105.44828125 -108.5359375 104.8965625 -108.296875 104.328125 C-106.65178865 101.37489769 -104.56837049 99.20887779 -102.25 96.75 C-99.216778 93.47673885 -96.31466308 90.23306208 -93.6875 86.625 C-92.98947266 85.68720703 -92.98947266 85.68720703 -92.27734375 84.73046875 C-91.09927819 83.13449614 -89.9244873 81.53610771 -88.75 79.9375 C-85.09552725 77.36275783 -82.9964639 77.80110859 -78.6953125 78.46875 C-71.2122449 79.94367347 -71.2122449 79.94367347 -68.32421875 80.59765625 C-65.77560909 81.03884414 -63.57804626 81.27205513 -61 81 C-60.01 79.515 -60.01 79.515 -59 78 C-58.34 78 -57.68 78 -57 78 C-56.9278125 77.47277344 -56.855625 76.94554687 -56.78125 76.40234375 C-55.67567281 73.00269389 -53.60835414 70.40042778 -51.5 67.5625 C-50.59021252 66.31578471 -49.68138022 65.06837191 -48.7734375 63.8203125 C-48.31163086 63.18770508 -47.84982422 62.55509766 -47.37402344 61.90332031 C-44.50938803 57.93517929 -41.76924536 53.88009515 -39.0078125 49.83984375 C-37 47 -37 47 -34.9921875 44.56640625 C-33.11468614 42.14774274 -31.68101833 39.67037649 -30.20068359 36.99853516 C-27.71102237 32.85449962 -24.71265825 29.04943028 -21.8125 25.1875 C-20.54686258 23.49447145 -19.28247516 21.80050751 -18.01953125 20.10546875 C-17.46370361 19.36449951 -16.90787598 18.62353027 -16.33520508 17.86010742 C-14.95334414 16.03857485 -14.95334414 16.03857485 -14 14 C-14.804375 13.7525 -15.60875 13.505 -16.4375 13.25 C-19 12 -19 12 -19.8125 9.875 C-19.874375 9.25625 -19.93625 8.6375 -20 8 C-16.91190305 6.23537317 -15.76687864 6 -12 6 C-12 5.34 -12 4.68 -12 4 C-10.18821242 3.33139964 -8.37554984 2.66516988 -6.5625 2 C-5.55316406 1.62875 -4.54382813 1.2575 -3.50390625 0.875 C-1 0 -1 0 0 0 Z " fill="#D74A5B" transform="translate(400,110)"/>
<path d="M0 0 C3.83585084 2.19302179 6.82220964 4.80175967 8.20703125 9.1328125 C9.27007264 14.67652368 9.28530531 20.33158407 7.5 25.6875 C4.21456461 30.28710955 0.16431385 33.89546622 -5.375 35.3125 C-10.83554267 36.19943746 -14.54261765 35.60736439 -19.25 32.625 C-23.1652913 29.72604738 -25.33111531 27.06455963 -27.0625 22.5 C-28.08260687 15.35925194 -27.54558623 10.2814124 -23.375 4.3125 C-17.0492223 -2.36012191 -8.38507247 -3.90149714 0 0 Z " fill="#1D3F5B" transform="translate(150.375,221.6875)"/>
<path d="M0 0 C2.97 0 5.94 0 9 0 C10.65 6.93 12.3 13.86 14 21 C15.4323834 18.1352332 16.42566995 15.88977808 17.2890625 12.890625 C17.50820312 12.13652344 17.72734375 11.38242188 17.953125 10.60546875 C18.28570312 9.43951172 18.28570312 9.43951172 18.625 8.25 C18.85445312 7.45722656 19.08390625 6.66445312 19.3203125 5.84765625 C19.88365481 3.89943077 20.44229292 1.94984612 21 0 C24.63 0 28.26 0 32 0 C34.31 7.26 36.62 14.52 39 22 C40.60441041 15.13482919 40.60441041 15.13482919 42.20092773 8.26782227 C42.40145752 7.41760498 42.6019873 6.5673877 42.80859375 5.69140625 C43.01282959 4.81685791 43.21706543 3.94230957 43.42749023 3.04125977 C44 1 44 1 45 0 C46.51928038 -0.07179964 48.04167482 -0.08392007 49.5625 -0.0625 C50.38878906 -0.05347656 51.21507812 -0.04445312 52.06640625 -0.03515625 C52.70449219 -0.02355469 53.34257812 -0.01195312 54 0 C52.53253928 6.08855096 50.82382061 12.0718813 49 18.0625 C47.29217936 23.69746266 45.5993221 29.33317122 44 35 C40.7 35 37.4 35 34 35 C31.69 27.08 29.38 19.16 27 11 C23.8474458 19.49571673 23.8474458 19.49571673 21.3125 28.0625 C20.09144543 32.81710914 20.09144543 32.81710914 19 35 C15.7 35 12.4 35 9 35 C7.7132541 30.49905105 6.43164751 25.9966827 5.15478516 21.49291992 C4.71967316 19.96094282 4.28315853 18.42936337 3.84521484 16.89819336 C3.21603275 14.69748276 2.5919058 12.49539224 1.96875 10.29296875 C1.67345398 9.26625313 1.67345398 9.26625313 1.37219238 8.21879578 C0.57184808 5.37413362 0 2.97220924 0 0 Z " fill="#1C3D5A" transform="translate(162,221)"/>
<path d="M0 0 C2.97 0 5.94 0 9 0 C9.33 6.27 9.66 12.54 10 19 C11.98 17.68 13.96 16.36 16 15 C20.84270066 13.99602547 24.92905317 14.53267775 29.4375 16.5 C34.2847507 21.22902507 35.17724379 26.49355464 35.29296875 33.03125 C35.27324516 35.18769638 35.23778831 37.34404984 35.1875 39.5 C35.16719727 41.16289062 35.16719727 41.16289062 35.14648438 42.859375 C35.11138881 45.57343232 35.0622227 48.28645193 35 51 C32.03 51 29.06 51 26 51 C25.97494385 50.32420898 25.9498877 49.64841797 25.92407227 48.95214844 C25.80789258 45.8845832 25.68526563 42.81730842 25.5625 39.75 C25.52318359 38.68652344 25.48386719 37.62304688 25.44335938 36.52734375 C25.40146484 35.50253906 25.35957031 34.47773438 25.31640625 33.421875 C25.27974854 32.47924805 25.24309082 31.53662109 25.20532227 30.56542969 C25.02060772 28.25748623 24.64138388 26.21859476 24 24 C22.41906283 23.8642325 20.83473048 23.76765255 19.25 23.6875 C18.36828125 23.62949219 17.4865625 23.57148438 16.578125 23.51171875 C13.86528391 23.81831447 13.86528391 23.81831447 11.71875 25.8125 C9.16823914 30.54253833 9.32455998 35.01535222 9.25 40.3125 C9.22035156 41.33923828 9.19070312 42.36597656 9.16015625 43.42382812 C9.08967806 45.94929675 9.0368734 48.47385415 9 51 C6.03 51 3.06 51 0 51 C0 34.17 0 17.34 0 0 Z " fill="#1B3C59" transform="translate(246,205)"/>
<path d="M0 0 C3.3 0 6.6 0 10 0 C10.01458252 0.73637695 10.02916504 1.47275391 10.04418945 2.23144531 C10.11871111 5.57149004 10.21535873 8.91053981 10.3125 12.25 C10.33505859 13.40886719 10.35761719 14.56773437 10.38085938 15.76171875 C10.41630859 16.87675781 10.45175781 17.99179688 10.48828125 19.140625 C10.51446533 20.16704102 10.54064941 21.19345703 10.56762695 22.25097656 C11.05837285 25.371134 11.76393368 26.78761464 14 29 C17.45749949 29.66676878 17.45749949 29.66676878 21 29 C23.90717073 26.78136971 24.83981643 25.48055071 26 22 C26.14715199 20.37432921 26.24721867 18.74413143 26.31640625 17.11328125 C26.35830078 16.17548828 26.40019531 15.23769531 26.44335938 14.27148438 C26.48267578 13.29501953 26.52199219 12.31855469 26.5625 11.3125 C26.60568359 10.32443359 26.64886719 9.33636719 26.69335938 8.31835938 C26.79941542 5.87907028 26.90020974 3.43955346 27 1 C29.97 1 32.94 1 36 1 C36 12.88 36 24.76 36 37 C33.03 37 30.06 37 27 37 C26.67 35.68 26.34 34.36 26 33 C24.824375 33.9590625 24.824375 33.9590625 23.625 34.9375 C19.47029367 38.20191212 16.19224987 38.54146367 11 38 C5.74656885 36.01757315 3.30712493 33.75526127 0.93408203 28.75317383 C-0.1315992 25.612116 -0.22794407 23.13632347 -0.1953125 19.82421875 C-0.18886719 18.66728516 -0.18242187 17.51035156 -0.17578125 16.31835938 C-0.15902344 15.12017578 -0.14226562 13.92199219 -0.125 12.6875 C-0.11597656 11.46998047 -0.10695313 10.25246094 -0.09765625 8.99804688 C-0.07413037 5.99849726 -0.04125653 2.99934956 0 0 Z " fill="#E54252" transform="translate(359,222)"/>
<path d="M0 0 C2.97 0 5.94 0 9 0 C9.01981934 0.64026123 9.03963867 1.28052246 9.06005859 1.94018555 C9.15563601 4.8563528 9.26518214 7.77183572 9.375 10.6875 C9.4059375 11.69490234 9.436875 12.70230469 9.46875 13.74023438 C9.50742187 14.71669922 9.54609375 15.69316406 9.5859375 16.69921875 C9.6173584 17.59471436 9.6487793 18.49020996 9.68115234 19.4128418 C10.03092377 22.25091824 10.73789244 24.43793847 12 27 C15.12860495 28.56430248 17.55602925 28.35627284 21 28 C23.72251813 25.77026741 24.85360783 23.91743749 25.40966797 20.43261719 C25.61843864 17.34648648 25.70843475 14.28033243 25.75 11.1875 C25.79447266 9.57584961 25.79447266 9.57584961 25.83984375 7.93164062 C25.91033653 5.28816123 25.95745653 2.64407689 26 0 C29.3 0 32.6 0 36 0 C36 11.88 36 23.76 36 36 C33.03 36 30.06 36 27 36 C26.505 33.525 26.505 33.525 26 31 C25.236875 31.804375 24.47375 32.60875 23.6875 33.4375 C20.52718519 36.45082342 18.99499269 36.92490621 14.6875 37.25 C9.99404533 36.93179968 6.98189067 35.48641801 3.25 32.6875 C0.20060822 28.5708211 -0.24664383 23.92445155 -0.1953125 18.9453125 C-0.18886719 17.83671875 -0.18242187 16.728125 -0.17578125 15.5859375 C-0.15902344 14.44382813 -0.14226562 13.30171875 -0.125 12.125 C-0.11597656 10.9596875 -0.10695313 9.794375 -0.09765625 8.59375 C-0.07417432 5.72895423 -0.04133141 2.86458465 0 0 Z " fill="#D85264" transform="translate(427,223)"/>
<path d="M0 0 C-0.6064114 3.22853786 -1.6694009 5.18831537 -3.6953125 7.7578125 C-4.24340576 8.46147949 -4.79149902 9.16514648 -5.35620117 9.89013672 C-6.23175659 10.99639404 -6.23175659 10.99639404 -7.125 12.125 C-8.31271598 13.64986046 -9.49892329 15.17589726 -10.68359375 16.703125 C-11.25577637 17.43982422 -11.82795898 18.17652344 -12.41748047 18.93554688 C-16.15520338 23.81153961 -19.5934589 28.89018834 -23 34 C-27.78245352 33.51056762 -30.46698045 32.30853911 -34.25 29.375 C-38.76634156 25.91185195 -43.37746116 22.76031594 -48.19921875 19.73828125 C-50 18 -50 18 -50.26953125 15.29296875 C-50.18058594 14.53628906 -50.09164063 13.77960938 -50 13 C-43.67572401 11.64008262 -37.43974581 10.62320121 -31 10 C-31 9.34 -31 8.68 -31 8 C-29.89205078 7.72736328 -29.89205078 7.72736328 -28.76171875 7.44921875 C-23.51848751 6.15006997 -18.28149953 4.8311293 -13.0625 3.4375 C-12.20785156 3.20933594 -11.35320312 2.98117188 -10.47265625 2.74609375 C-7.94355679 2.02783285 -7.94355679 2.02783285 -5.37109375 0.91015625 C-3 0 -3 0 0 0 Z " fill="#F8FCFC" transform="translate(324,160)"/>
<path d="M0 0 C2.97 0 5.94 0 9 0 C9 3.3 9 6.6 9 10 C11.97 10 14.94 10 18 10 C18 12.31 18 14.62 18 17 C15.03 17 12.06 17 9 17 C9.33 23.27 9.66 29.54 10 36 C12.64 36.33 15.28 36.66 18 37 C18 39.64 18 42.28 18 45 C7.25459555 45.68831772 7.25459555 45.68831772 3.375 43.1875 C0.71788848 40.74016045 0.06588378 39.31640052 -0.11352539 35.73168945 C-0.10828857 34.86761475 -0.10305176 34.00354004 -0.09765625 33.11328125 C-0.09443359 32.17548828 -0.09121094 31.23769531 -0.08789062 30.27148438 C-0.07951172 29.29501953 -0.07113281 28.31855469 -0.0625 27.3125 C-0.05798828 26.32443359 -0.05347656 25.33636719 -0.04882812 24.31835938 C-0.03704303 21.87884526 -0.02059011 19.43945311 0 17 C-1.98 17 -3.96 17 -6 17 C-6 14.69 -6 12.38 -6 10 C-4.02 10 -2.04 10 0 10 C0 6.7 0 3.4 0 0 Z " fill="#1B3D59" transform="translate(223,211)"/>
<path d="M0 0 C14.2 0 14.2 0 19 3 C21.90743603 6.2056346 23.24121043 8.72252302 23.4375 13 C23.12778498 18.23518293 21.34535222 21.61828691 17.6875 25.375 C12.63039628 28.50497212 5.61596023 27.21192303 0 27 C0 18.09 0 9.18 0 0 Z " fill="#23445E" transform="translate(144,275)"/>
<path d="M0 0 C5.11739538 1.33237181 8.03455899 2.3159771 10.79296875 6.94921875 C11.61636438 8.5156466 12.41415252 10.09576816 13.1875 11.6875 C13.99137548 13.25499225 14.7973554 14.8214071 15.60546875 16.38671875 C15.9926709 17.15419434 16.37987305 17.92166992 16.77880859 18.71240234 C18.36881701 21.69088673 20.18851186 24.48674015 22.07543945 27.28442383 C23 29 23 29 23 32 C20.89915791 33.00696568 18.79420511 34.0053589 16.6875 35 C15.51574219 35.556875 14.34398437 36.11375 13.13671875 36.6875 C10 38 10 38 7 38 C7 37.34 7 36.68 7 36 C9.475 35.505 9.475 35.505 12 35 C10.12297673 30.10437307 10.12297673 30.10437307 7 26 C5.68 26 4.36 26 3 26 C3.01160156 26.62648437 3.02320313 27.25296875 3.03515625 27.8984375 C3.04417969 28.71570313 3.05320312 29.53296875 3.0625 30.375 C3.07410156 31.18710938 3.08570313 31.99921875 3.09765625 32.8359375 C3 35 3 35 2 37 C1.34 37 0.68 37 0 37 C-0.02705729 35.22925083 -0.04642195 33.45838289 -0.0625 31.6875 C-0.07410156 30.70136719 -0.08570313 29.71523437 -0.09765625 28.69921875 C0 26 0 26 1 23 C0.01 23 -0.98 23 -2 23 C-1.34 19.37 -0.68 15.74 0 12 C0.99 11.67 1.98 11.34 3 11 C3 8.69 3 6.38 3 4 C2.2575 4.78375 1.515 5.5675 0.75 6.375 C-2 9 -2 9 -4.1875 10 C-6.77553894 11.42788355 -6.96704862 13.28850262 -8 16 C-10.125 18.3125 -10.125 18.3125 -12 20 C-12.33 19.01 -12.66 18.02 -13 17 C-12.34 17 -11.68 17 -11 17 C-10.773125 16.278125 -10.54625 15.55625 -10.3125 14.8125 C-8.75358681 11.47197174 -6.59053053 9.59053053 -4 7 C-3.13880866 4.82653432 -3.13880866 4.82653432 -3 3 C-2.34 3 -1.68 3 -1 3 C-0.67 2.01 -0.34 1.02 0 0 Z " fill="#F2F8F9" transform="translate(265,177)"/>
<path d="M0 0 C0 3.3 0 6.6 0 10 C-1.953125 10.09765625 -3.90625 10.1953125 -5.859375 10.29296875 C-9.28014248 11.42282078 -10.21616698 12.87046838 -12 16 C-12.61660076 19.60090409 -12.69610521 23.16480232 -12.75 26.8125 C-12.77964844 27.79154297 -12.80929687 28.77058594 -12.83984375 29.77929688 C-12.9102768 32.18575939 -12.95743383 34.59288331 -13 37 C-15.97 37 -18.94 37 -22 37 C-22 25.12 -22 13.24 -22 1 C-19.36 1 -16.72 1 -14 1 C-13.34 2.32 -12.68 3.64 -12 5 C-11.236875 4.360625 -10.47375 3.72125 -9.6875 3.0625 C-6.15702757 0.35306767 -4.48048683 0 0 0 Z " fill="#DF4556" transform="translate(424,222)"/>
<path d="M0 0 C0 3.3 0 6.6 0 10 C-2.24609375 10.13020833 -4.4921875 10.26041667 -6.73828125 10.390625 C-9.75940472 11.20460645 -10.38526679 12.36018335 -12 15 C-12.49758752 17.40554294 -12.49758752 17.40554294 -12.51171875 19.984375 C-12.54716797 20.91894531 -12.58261719 21.85351562 -12.61914062 22.81640625 C-12.65297852 24.26853516 -12.65297852 24.26853516 -12.6875 25.75 C-12.72166016 26.73355469 -12.75582031 27.71710938 -12.79101562 28.73046875 C-12.87334309 31.15324858 -12.93835225 33.5766058 -13 36 C-15.97 36 -18.94 36 -22 36 C-22 24.45 -22 12.9 -22 1 C-19.36 1 -16.72 1 -14 1 C-13.34 2.32 -12.68 3.64 -12 5 C-11.21625 4.360625 -10.4325 3.72125 -9.625 3.0625 C-5.68857891 -0.03040229 -5.38386157 0 0 0 Z " fill="#143757" transform="translate(121,220)"/>
<path d="M0 0 C5.4939759 2.69879518 5.4939759 2.69879518 6.875 6.25 C6.91625 6.8275 6.9575 7.405 7 8 C2.45454545 8.37878788 2.45454545 8.37878788 0.125 6.4375 C-2.06434358 4.65976467 -2.06434358 4.65976467 -5.5625 5.0625 C-8.95161008 5.72928289 -8.95161008 5.72928289 -10.9375 7.625 C-12.7161243 11.60074843 -12.62301395 15.30896214 -11.125 19.375 C-10.08249579 21.15909903 -10.08249579 21.15909903 -8 22 C-3.2942166 22.48118608 -3.2942166 22.48118608 0.875 20.6875 C2.18546123 18.88214533 2.18546123 18.88214533 3 16 C0.69 16 -1.62 16 -4 16 C-4 14.68 -4 13.36 -4 12 C-0.04 12 3.92 12 8 12 C8 16.95 8 21.9 8 27 C6.35 27 4.7 27 3 27 C2.67 26.34 2.34 25.68 2 25 C1.01 25.66 0.02 26.32 -1 27 C-5.18099938 27.813172 -9.26825728 28.10831534 -12.953125 25.75 C-16.50571445 22.02495475 -17.93260014 18.32411917 -18.16796875 13.20703125 C-17.80426521 8.42813587 -15.98052588 5.15880331 -12.9375 1.5625 C-8.62272881 -0.73259106 -4.78520346 -0.7644095 0 0 Z " fill="#25425A" transform="translate(221,275)"/>
<path d="M0 0 C1.98 0 3.96 0 6 0 C7.50514646 4.12314058 9.00324372 8.24880702 10.5 12.375 C10.92925781 13.550625 11.35851562 14.72625 11.80078125 15.9375 C12.20683594 17.05898438 12.61289062 18.18046875 13.03125 19.3359375 C13.40830078 20.37282715 13.78535156 21.4097168 14.17382812 22.47802734 C15 25 15 25 15 27 C13.35 27 11.7 27 10 27 C9.34 25.35 8.68 23.7 8 22 C4.37 21.67 0.74 21.34 -3 21 C-3.66 22.98 -4.32 24.96 -5 27 C-6.65 27 -8.3 27 -10 27 C-3.84965831 7.99544419 -3.84965831 7.99544419 0 0 Z " fill="#1B3D58" transform="translate(309,275)"/>
<path d="M0 0 C2.97 0 5.94 0 9 0 C9 11.88 9 23.76 9 36 C6.03 36 3.06 36 0 36 C-0.98089538 27.86132996 -0.97929719 19.99034828 -0.5625 11.8125 C-0.51029297 10.66974609 -0.45808594 9.52699219 -0.40429688 8.34960938 C-0.27618196 5.56602161 -0.14131009 2.78294371 0 0 Z " fill="#E54050" transform="translate(386,223)"/>
<path d="M0 0 C0.33 0.66 0.66 1.32 1 2 C0.05184571 3.69669715 -0.96344932 5.35581617 -2 7 C-3.03837588 9.06486196 -4.04164307 11.14369207 -5.03515625 13.23046875 C-6 15 -6 15 -8 17 C-7.67 17.33 -7.34 17.66 -7 18 C-6.72685185 23.73611111 -6.72685185 23.73611111 -7 26 C-7.66 26.66 -8.32 27.32 -9 28 C-10.13003213 33.46345971 -10.09230709 38.53846454 -9 44 C-9.33 44.66 -9.66 45.32 -10 46 C-12.31 46 -14.62 46 -17 46 C-18 43 -18 43 -18 40 C-19.32 40.66 -20.64 41.32 -22 42 C-22.33 41.34 -22.66 40.68 -23 40 C-22.505 39.4225 -22.01 38.845 -21.5 38.25 C-19.63019987 35.89599371 -19.63019987 35.89599371 -20 32 C-20.99 34.475 -20.99 34.475 -22 37 C-22.99 37 -23.98 37 -25 37 C-23.69288732 32.68652815 -21.43402184 29.98982864 -18.4375 26.74609375 C-16.93959302 24.92662522 -15.97346782 23.13882113 -15 21 C-14.34 21 -13.68 21 -13 21 C-12.67902344 20.01966797 -12.67902344 20.01966797 -12.3515625 19.01953125 C-10.50336225 14.89045959 -7.97329529 11.37721121 -5.375 7.6875 C-4.859375 6.94693359 -4.34375 6.20636719 -3.8125 5.44335938 C-2.54605274 3.62577303 -1.27514241 1.81149162 0 0 Z " fill="#F5F0F0" transform="translate(370,158)"/>
<path d="M0 0 C2.36497439 1.86708505 3.66030715 3.32061431 5 6 C5.35032356 11.34243433 5.4561069 14.64786539 2 19 C-1 21 -1 21 -4.4375 20.875 C-8 20 -8 20 -10.4375 18.625 C-13.01479419 14.29514576 -12.82467678 9.89018863 -12 5 C-8.76221432 -0.0038506 -5.83002474 -0.95400405 0 0 Z " fill="#F7FBFC" transform="translate(145,228)"/>
<path d="M0 0 C8.71208758 3.16662758 17.18698178 9.76296158 24 16 C24 16.66 24 17.32 24 18 C24.99 18.33 25.98 18.66 27 19 C26.34 19.33 25.68 19.66 25 20 C24.27840576 21.64363134 23.60648579 23.31050386 23 25 C22.34 25 21.68 25 21 25 C20.67 26.32 20.34 27.64 20 29 C16.65060868 28.42251874 15.18122879 27.5936004 13 25 C11.84062171 22.84125447 10.7433536 20.64872443 9.6875 18.4375 C7.07414196 13.04152315 4.2466431 7.8830084 1.06640625 2.79296875 C0 1 0 1 0 0 Z " fill="#F5F9F9" transform="translate(272,179)"/>
<path d="M0 0 C4.99268362 0.6946907 9.96985864 1.45512878 14.9375 2.3125 C16.02708008 2.50054199 16.02708008 2.50054199 17.13867188 2.69238281 C23.20036918 3.7776306 29.1447927 5.20079516 35.08569336 6.81762695 C36.71364894 7.25176228 38.35587987 7.63178559 40 8 C40.33 7.67 40.66 7.34 41 7 C40.505 5.515 40.505 5.515 40 4 C40.928125 4.2475 40.928125 4.2475 41.875 4.5 C44.51756073 5.12177899 45.5498653 5.22506735 48 4 C48 4.99 48 5.98 48 7 C49.85625 6.938125 49.85625 6.938125 51.75 6.875 C55.01637962 6.86341709 57.2146947 7.1431298 60 9 C60.29296875 15.0546875 60.29296875 15.0546875 60 17 C56.3558226 19.4294516 54.28758728 19.16179575 50 19 C50 18.01 50 17.02 50 16 C49.34 16 48.68 16 48 16 C48 14.35 48 12.7 48 11 C47.27296875 10.96261719 46.5459375 10.92523438 45.796875 10.88671875 C39.19801992 10.45525515 33.14200476 9.41340259 26.76171875 7.6953125 C23.1742068 6.79209167 19.67660587 6.38701114 16 6 C12.33520731 5.33863841 8.77530989 4.43171238 5.1875 3.4375 C4.21167969 3.16808594 3.23585938 2.89867187 2.23046875 2.62109375 C1.12638672 2.31365234 1.12638672 2.31365234 0 2 C0 1.34 0 0.68 0 0 Z " fill="#ECF0F0" transform="translate(264,313)"/>
<path d="M0 0 C0.66 0.66 1.32 1.32 2 2 C5.08347826 2.16681109 5.08347826 2.16681109 8 2 C8 2.66 8 3.32 8 4 C0.71428571 7.42857143 0.71428571 7.42857143 -4 7 C-4 8.32 -4 9.64 -4 11 C-1.69 11 0.62 11 3 11 C2.61502006 13.23288365 2.10506663 14.83656302 0.875 16.75 C-2.13519839 18.75679893 -4.48682123 18.43144301 -8 18 C-10.36497439 16.13291495 -11.66030715 14.67938569 -13 12 C-13.39447548 7.81855989 -13.45035186 5.69053952 -11.125 2.125 C-7.34218224 -1.65781776 -5.13023903 -1.00772552 0 0 Z " fill="#EFF5F8" transform="translate(221,280)"/>
<path d="M0 0 C7.91974637 -0.25741321 15.4839886 0.72936419 23.3125 1.875 C24.57384766 2.04902344 25.83519531 2.22304688 27.13476562 2.40234375 C28.34455078 2.57636719 29.55433594 2.75039063 30.80078125 2.9296875 C32.44300659 3.16534424 32.44300659 3.16534424 34.1184082 3.40576172 C36.75503617 3.94948386 38.68453169 4.66014839 41 6 C31.49095101 6.32417212 22.38695104 5.33418593 13 4 C13 3.34 13 2.68 13 2 C9.04 2 5.08 2 1 2 C0.34 3.32 -0.32 4.64 -1 6 C-2.72660399 8.27634819 -4.53110708 10.47539528 -6.34375 12.68359375 C-8.03526594 15.04932241 -9.0358933 17.2667575 -10 20 C-10.66 20 -11.32 20 -12 20 C-12 20.66 -12 21.32 -12 22 C-12.66 22 -13.32 22 -14 22 C-14.2475 22.721875 -14.495 23.44375 -14.75 24.1875 C-16 27 -16 27 -18.0625 29.5625 C-19.88985561 31.86143125 -20.5779596 33.15122727 -21 36 C-21.99 36 -22.98 36 -24 36 C-24.23976563 36.52464844 -24.47953125 37.04929687 -24.7265625 37.58984375 C-26.38847202 40.73523693 -28.36096502 43.63688382 -30.375 46.5625 C-30.76171875 47.13935547 -31.1484375 47.71621094 -31.546875 48.31054688 C-33.72029327 51.47221406 -35.75894284 53.92069164 -39 56 C-38.67 54.68 -38.34 53.36 -38 52 C-37.34 52 -36.68 52 -36 52 C-35.89558594 51.41992188 -35.79117188 50.83984375 -35.68359375 50.2421875 C-34.89623121 47.65963838 -33.77008344 46.20416028 -32.0625 44.125 C-29.49150478 40.8500418 -28.26209259 37.98044586 -27 34 C-25.515 33.505 -25.515 33.505 -24 33 C-22.3654418 31.2469578 -22.3654418 31.2469578 -20.875 29.125 C-20.35679688 28.42632812 -19.83859375 27.72765625 -19.3046875 27.0078125 C-17.83902639 24.9366622 -17.83902639 24.9366622 -17 22 C-16.34 22 -15.68 22 -15 22 C-15 21.34 -15 20.68 -15 20 C-14.34 20 -13.68 20 -13 20 C-12.89558594 19.4225 -12.79117188 18.845 -12.68359375 18.25 C-11.8941049 15.65145383 -10.75252379 14.1156288 -9.0625 12 C-7.01634748 9.42597029 -5.38115104 6.9891578 -4 4 C-3.34 4 -2.68 4 -2 4 C-1.34 2.68 -0.68 1.36 0 0 Z " fill="#E7EAE9" transform="translate(143,352)"/>
<path d="M0 0 C2.31 0 4.62 0 7 0 C7.33 10.23 7.66 20.46 8 31 C5 32 5 32 2.875 31.25 C1 30 1 30 0 27 C-0.08315752 24.93501108 -0.10735878 22.8674211 -0.09765625 20.80078125 C-0.09443359 19.59228516 -0.09121094 18.38378906 -0.08789062 17.13867188 C-0.07951172 15.87603516 -0.07113281 14.61339844 -0.0625 13.3125 C-0.05573242 11.40114258 -0.05573242 11.40114258 -0.04882812 9.45117188 C-0.03702873 6.30073436 -0.02056597 3.15039051 0 0 Z " fill="#E3434F" transform="translate(428,224)"/>
<path d="M0 0 C1.98 0 3.96 0 6 0 C6 10.89 6 21.78 6 33 C3.69 32.67 1.38 32.34 -1 32 C-3.24541469 25.51324645 -3.24541469 25.51324645 -2.08056641 23.07714844 C-1.72397949 22.39168945 -1.36739258 21.70623047 -1 21 C-0.63820497 18.58820096 -0.63820497 18.58820096 -0.5859375 16.015625 C-0.54726563 15.08105469 -0.50859375 14.14648438 -0.46875 13.18359375 C-0.4378125 12.21550781 -0.406875 11.24742187 -0.375 10.25 C-0.33632813 9.26644531 -0.29765625 8.28289062 -0.2578125 7.26953125 C-0.16371574 4.84653963 -0.07807672 2.42355204 0 0 Z " fill="#E6444D" transform="translate(455,224)"/>
<path d="M0 0 C0 0.66 0 1.32 0 2 C0.3403125 2.9590625 0.3403125 2.9590625 0.6875 3.9375 C0.790625 4.618125 0.89375 5.29875 1 6 C-0.4375 7.75 -0.4375 7.75 -2 9 C-1.34 10.98 -0.68 12.96 0 15 C0.66 14.01 1.32 13.02 2 12 C2.66 12 3.32 12 4 12 C4.33 11.01 4.66 10.02 5 9 C5.99 10.485 5.99 10.485 7 12 C1.375 17 1.375 17 -2 17 C-2.33 16.34 -2.66 15.68 -3 15 C-3.66 15.99 -4.32 16.98 -5 18 C-5.99 18.66 -6.98 19.32 -8 20 C-8.391875 18.741875 -8.78375 17.48375 -9.1875 16.1875 C-10.29823236 13.24976861 -10.84694045 12.12823909 -13.3125 10.0625 C-16.21662984 8.91435564 -18.90305852 8.36010947 -22 8 C-22 7.67 -22 7.34 -22 7 C-18.535 6.505 -18.535 6.505 -15 6 C-15 5.01 -15 4.02 -15 3 C-4.75899281 -1.52967626 -4.75899281 -1.52967626 0 0 Z " fill="#F3F5F4" transform="translate(288,212)"/>
<path d="M0 0 C9 0 9 0 11.5625 2.0625 C13.33375118 5.68201328 13.43507849 8.01178049 13 12 C11.81232145 15.38031589 11.10174775 15.93216817 8 18 C5.36 18 2.72 18 0 18 C0 12.06 0 6.12 0 0 Z " fill="#F2F7F9" transform="translate(149,280)"/>
<path d="M0 0 C6.93 0 13.86 0 21 0 C21 1.32 21 2.64 21 4 C18.36 4 15.72 4 13 4 C13 11.59 13 19.18 13 27 C11.35 27 9.7 27 8 27 C8 19.41 8 11.82 8 4 C5.36 4 2.72 4 0 4 C0 2.68 0 1.36 0 0 Z " fill="#274459" transform="translate(265,275)"/>
<path d="M0 0 C2.1875 -0.03515625 2.1875 -0.03515625 5 1 C7.04725685 3.64647318 8.49112978 6.58483893 10 9.5625 C10.83119248 11.14825941 11.6645163 12.73290354 12.5 14.31640625 C12.90605469 15.0964502 13.31210937 15.87649414 13.73046875 16.68017578 C15.35925636 19.6564719 17.18851418 22.47512481 19.08203125 25.28881836 C20 27 20 27 20 30 C17.89915791 31.00696568 15.79420511 32.0053589 13.6875 33 C12.51574219 33.556875 11.34398437 34.11375 10.13671875 34.6875 C7 36 7 36 4 36 C4 35.34 4 34.68 4 34 C6.475 33.505 6.475 33.505 9 33 C8.525625 31.948125 8.05125 30.89625 7.5625 29.8125 C6.31515432 26.89808569 5.37314751 24.17175383 5 21 C6 20 6 20 9.0625 19.9375 C10.5165625 19.9684375 10.5165625 19.9684375 12 20 C11.43410156 18.87980469 10.86820312 17.75960937 10.28515625 16.60546875 C9.54416494 15.13286578 8.80328534 13.66020659 8.0625 12.1875 C7.68931641 11.44951172 7.31613281 10.71152344 6.93164062 9.95117188 C6.57392578 9.23896484 6.21621094 8.52675781 5.84765625 7.79296875 C5.3527771 6.81106567 5.3527771 6.81106567 4.84790039 5.80932617 C4 4 4 4 3 1 C2.01 0.67 1.02 0.34 0 0 Z " fill="#CED2D3" transform="translate(268,179)"/>
<path d="M0 0 C1.65 0 3.3 0 5 0 C5 7.59 5 15.18 5 23 C8.96 23 12.92 23 17 23 C17 24.32 17 25.64 17 27 C11.39 27 5.78 27 0 27 C0 18.09 0 9.18 0 0 Z " fill="#23445F" transform="translate(339,275)"/>
<path d="M0 0 C0.99 0 1.98 0 3 0 C2.67 1.32 2.34 2.64 2 4 C1.34 4 0.68 4 0 4 C-0.268125 4.7321875 -0.53625 5.464375 -0.8125 6.21875 C-4.12142117 13.9685917 -10.18376815 20.55593122 -15.359375 27.15307617 C-18.59039002 31.3266777 -21.31389821 35.64372667 -23.84375 40.26953125 C-24.2253125 40.84058594 -24.606875 41.41164063 -25 42 C-25.66 42 -26.32 42 -27 42 C-27.33 43.32 -27.66 44.64 -28 46 C-28.66 46 -29.32 46 -30 46 C-30.33 46.99 -30.66 47.98 -31 49 C-33.25056722 48.88566637 -35.50046674 48.75813564 -37.75 48.625 C-39.00296875 48.55539062 -40.2559375 48.48578125 -41.546875 48.4140625 C-44.60998121 48.04676696 -46.41974266 47.60288714 -49 46 C-47.10424749 45.97278824 -45.20838021 45.95350864 -43.3125 45.9375 C-42.25675781 45.92589844 -41.20101562 45.91429687 -40.11328125 45.90234375 C-37.27589738 45.99134575 -34.7561081 46.35060162 -32 47 C-32 46.34 -32 45.68 -32 45 C-31.34 45 -30.68 45 -30 45 C-29.566875 43.88625 -29.566875 43.88625 -29.125 42.75 C-28.17697356 40.43260203 -27.15154089 38.22082885 -26 36 C-25.34 36 -24.68 36 -24 36 C-23.58790283 35.12384033 -23.58790283 35.12384033 -23.16748047 34.22998047 C-22.0370028 32.07067829 -20.79762685 30.25453871 -19.3203125 28.3203125 C-18.54494141 27.29744141 -18.54494141 27.29744141 -17.75390625 26.25390625 C-17.21636719 25.55136719 -16.67882812 24.84882813 -16.125 24.125 C-10.05157509 16.39690692 -10.05157509 16.39690692 -5 8 C-5.763125 8.680625 -6.52625 9.36125 -7.3125 10.0625 C-8.199375 10.701875 -9.08625 11.34125 -10 12 C-10.99 11.67 -11.98 11.34 -13 11 C-11.68 10.34 -10.36 9.68 -9 9 C-9 8.34 -9 7.68 -9 7 C-8.34 7 -7.68 7 -7 7 C-7 6.34 -7 5.68 -7 5 C-6.21625 4.731875 -5.4325 4.46375 -4.625 4.1875 C-1.71885077 3.15185568 -1.71885077 3.15185568 0 0 Z " fill="#DEE2E1" transform="translate(233,312)"/>
<path d="M0 0 C0.99 0 1.98 0 3 0 C4.23689062 2.47378124 4.13310087 4.17915317 4.125 6.9375 C4.12757813 7.81277344 4.13015625 8.68804687 4.1328125 9.58984375 C4 12 4 12 3 15 C2.8455467 19.17023918 3.01611229 22.94146318 4 27 C3.01 27 2.02 27 1 27 C0.67 27.99 0.34 28.98 0 30 C-0.66 30 -1.32 30 -2 30 C-2 28.02 -2 26.04 -2 24 C-2.66 24 -3.32 24 -4 24 C-4.05454409 21.64551325 -4.0939279 19.29232125 -4.125 16.9375 C-4.14820313 15.62652344 -4.17140625 14.31554687 -4.1953125 12.96484375 C-3.99417522 8.88175701 -3.27165462 5.85000947 -2 2 C-1.34 2 -0.68 2 0 2 C0 1.34 0 0.68 0 0 Z " fill="#E74151" transform="translate(311,218)"/>
<path d="M0 0 C1.98 0 3.96 0 6 0 C6 8.91 6 17.82 6 27 C4.02 27 2.04 27 0 27 C0 18.09 0 9.18 0 0 Z " fill="#678096" transform="translate(182,275)"/>
<path d="M0 0 C5.20577536 0.53120157 9.56076866 1.15219122 14 4 C15.78260314 7.54947743 16.95438388 11.17473358 18 15 C14.125 14.125 14.125 14.125 13 13 C11.14712498 12.92773498 9.29166122 12.9161878 7.4375 12.9375 C6.42558594 12.94652344 5.41367188 12.95554688 4.37109375 12.96484375 C3.58863281 12.97644531 2.80617187 12.98804688 2 13 C1.66127487 11.58461283 1.32925376 10.16762037 1 8.75 C0.814375 7.96109375 0.62875 7.1721875 0.4375 6.359375 C0 4 0 4 0 0 Z " fill="#C1D1D2" transform="translate(179,198)"/>
<path d="M0 0 C1.32 0.66 2.64 1.32 4 2 C3.01 2.495 3.01 2.495 2 3 C2 3.66 2 4.32 2 5 C12.67665681 5.29318331 12.67665681 5.29318331 23.1328125 3.4375 C25 3 25 3 29 3 C29 3.99 29 4.98 29 6 C27.06447266 6.27263672 27.06447266 6.27263672 25.08984375 6.55078125 C23.37232179 6.80418613 21.65487789 7.05812052 19.9375 7.3125 C18.66616211 7.48942383 18.66616211 7.48942383 17.36914062 7.66992188 C12.1219698 8.4600364 7.77953305 9.68481235 3 12 C3.33 12.66 3.66 13.32 4 14 C6.02463255 14.65213292 6.02463255 14.65213292 8 15 C8 15.66 8 16.32 8 17 C8.99 17.33 9.98 17.66 11 18 C8 19 8 19 6.17578125 18.22265625 C4.45052083 17.1484375 2.72526042 16.07421875 1 15 C0.01 16.485 0.01 16.485 -1 18 C-1.66 17.67 -2.32 17.34 -3 17 C-3 16.34 -3 15.68 -3 15 C-2.34 15 -1.68 15 -1 15 C-1 12.69 -1 10.38 -1 8 C-1.99 7.67 -2.98 7.34 -4 7 C-4 5.35 -4 3.7 -4 2 C-2.68 2 -1.36 2 0 2 C0 1.34 0 0.68 0 0 Z " fill="#EBEBEE" transform="translate(336,144)"/>
<path d="M0 0 C3 1 3 1 4.1875 2.75 C5.10819096 5.29960574 5.14948718 7.30923081 5 10 C3.68 10 2.36 10 1 10 C1.4295555 13.67539032 1.4295555 13.67539032 3.625 16.5 C4.07875 16.995 4.5325 17.49 5 18 C4.6875 20.6875 4.6875 20.6875 4 23 C1.6739143 23.38063221 -0.66055264 23.71269945 -3 24 C-4 23 -4 23 -4.0625 19.4375 C-4.041875 18.303125 -4.02125 17.16875 -4 16 C-3.01 15.67 -2.02 15.34 -1 15 C-1 13.35 -1 11.7 -1 10 C-1.99 9.67 -2.98 9.34 -4 9 C-3.35455571 5.51460083 -1.89865603 2.97180943 0 0 Z " fill="#8C9C9B" transform="translate(331,136)"/>
<path d="M0 0 C1.65 0 3.3 0 5 0 C5 8.91 5 17.82 5 27 C3.35 27 1.7 27 0 27 C0 18.09 0 9.18 0 0 Z " fill="#304E69" transform="translate(245,275)"/>
<path d="M0 0 C3.37705625 0.53725895 6.696686 1.11064623 10 2 C10 3.98 10 5.96 10 8 C11.299375 8.144375 12.59875 8.28875 13.9375 8.4375 C17.875 8.875 17.875 8.875 19 10 C19.125 13 19.125 13 19 16 C18 17 18 17 15.5625 17.1875 C13 17 13 17 11 15 C10.29289322 13.35008418 9.62056011 11.68437744 9 10 C7.02 10 5.04 10 3 10 C2.01 6.7 1.02 3.4 0 0 Z " fill="#738787" transform="translate(254,162)"/>
<path d="M0 0 C0 3.3 0 6.6 0 10 C-1.8253125 10.0928125 -1.8253125 10.0928125 -3.6875 10.1875 C-8.15849852 10.71163126 -10.13301658 12.50586395 -13 16 C-13.70173653 11.61414671 -14.10834375 7.44209357 -14 3 C-13.34 3.66 -12.68 4.32 -12 5 C-11.236875 4.360625 -10.47375 3.72125 -9.6875 3.0625 C-6.15702757 0.35306767 -4.48048683 0 0 0 Z " fill="#E1485A" transform="translate(424,222)"/>
<path d="M0 0 C0.33 0.66 0.66 1.32 1 2 C0.05184571 3.69669715 -0.96344932 5.35581617 -2 7 C-3.03837588 9.06486196 -4.04164307 11.14369207 -5.03515625 13.23046875 C-6 15 -6 15 -8 17 C-8.64767793 19.57061311 -8.64767793 19.57061311 -9 22 C-9.99 22 -10.98 22 -12 22 C-12 24.31 -12 26.62 -12 29 C-12.66 29.33 -13.32 29.66 -14 30 C-14.66 29.67 -15.32 29.34 -16 29 C-16.99 31.475 -16.99 31.475 -18 34 C-18.66 33.34 -19.32 32.68 -20 32 C-20.99 34.475 -20.99 34.475 -22 37 C-22.99 37 -23.98 37 -25 37 C-23.69288732 32.68652815 -21.43402184 29.98982864 -18.4375 26.74609375 C-16.93959302 24.92662522 -15.97346782 23.13882113 -15 21 C-14.34 21 -13.68 21 -13 21 C-12.67902344 20.01966797 -12.67902344 20.01966797 -12.3515625 19.01953125 C-10.50336225 14.89045959 -7.97329529 11.37721121 -5.375 7.6875 C-4.859375 6.94693359 -4.34375 6.20636719 -3.8125 5.44335938 C-2.54605274 3.62577303 -1.27514241 1.81149162 0 0 Z " fill="#FCEBEC" transform="translate(370,158)"/>
<path d="M0 0 C0.33 0 0.66 0 1 0 C1.33 1.98 1.66 3.96 2 6 C2.99 6.33 3.98 6.66 5 7 C5.30221599 15.46204771 4.14920797 23.63745983 3 32 C2.67 32 2.34 32 2 32 C2 25.07 2 18.14 2 11 C-2.39997042 12.0999926 -2.76041837 12.49112769 -5.2421875 15.97265625 C-6.12970703 17.19952148 -6.12970703 17.19952148 -7.03515625 18.45117188 C-7.64230469 19.31291016 -8.24945313 20.17464844 -8.875 21.0625 C-10.08046384 22.74107599 -11.28619062 24.41946319 -12.4921875 26.09765625 C-13.07709961 26.91637207 -13.66201172 27.73508789 -14.26464844 28.57861328 C-15.93840066 30.91404865 -17.61849531 33.24352307 -19.3203125 35.55859375 C-19.78969238 36.19982178 -20.25907227 36.8410498 -20.74267578 37.50170898 C-22 39 -22 39 -24 40 C-22.39789075 34.82863469 -19.17239625 31.06230268 -15.875 26.875 C-14.69995566 25.35460329 -13.52547625 23.83376981 -12.3515625 22.3125 C-10.78071446 20.28765476 -9.20802543 18.26457173 -7.62402344 16.25 C-1.73202546 8.9372569 -1.73202546 8.9372569 0 0 Z " fill="#C8C8CA" transform="translate(326,153)"/>
<path d="M0 0 C2.2109885 0.42793326 3.98119242 0.99059621 6 2 C6 5.96 6 9.92 6 14 C4.68 14.33 3.36 14.66 2 15 C2.01160156 15.62648437 2.02320313 16.25296875 2.03515625 16.8984375 C2.04869141 18.12433594 2.04869141 18.12433594 2.0625 19.375 C2.07410156 20.18710938 2.08570313 20.99921875 2.09765625 21.8359375 C2 24 2 24 1 26 C0.34 26 -0.32 26 -1 26 C-1.02705729 24.22925083 -1.04642195 22.45838289 -1.0625 20.6875 C-1.07410156 19.70136719 -1.08570313 18.71523437 -1.09765625 17.69921875 C-1 15 -1 15 0 12 C-0.99 12 -1.98 12 -3 12 C-2.69230293 10.18667846 -2.37870936 8.37435655 -2.0625 6.5625 C-1.80146484 5.04849609 -1.80146484 5.04849609 -1.53515625 3.50390625 C-1 1 -1 1 0 0 Z " fill="#E8EFF0" transform="translate(266,188)"/>
<path d="M0 0 C2.95183101 2.95183101 3.08663988 5.95511947 4 10 C6.51083114 8.74458443 6.87125446 7.49936512 8 5 C8.83719383 7.29032311 9.6698929 9.58210957 10.5 11.875 C10.73847656 12.52597656 10.97695313 13.17695313 11.22265625 13.84765625 C13 18.7734375 13 18.7734375 13 21 C11.35 21 9.7 21 8 21 C7.34 19.35 6.68 17.7 6 16 C2.37 15.67 -1.26 15.34 -5 15 C-5 14.67 -5 14.34 -5 14 C-4.28972656 13.95101563 -3.57945312 13.90203125 -2.84765625 13.8515625 C-1.46900391 13.73941406 -1.46900391 13.73941406 -0.0625 13.625 C0.85402344 13.55539062 1.77054687 13.48578125 2.71484375 13.4140625 C3.84599609 13.20910156 3.84599609 13.20910156 5 13 C5.33 12.34 5.66 11.68 6 11 C3.03 11 0.06 11 -3 11 C-2.01 7.37 -1.02 3.74 0 0 Z " fill="#2D516C" transform="translate(311,281)"/>
<path d="M0 0 C3.3 0 6.6 0 10 0 C10 11.88 10 23.76 10 36 C7.03 36 4.06 36 1 36 C1 35.01 1 34.02 1 33 C3.31 33.33 5.62 33.66 8 34 C8 23.11 8 12.22 8 1 C6.02 1.33 4.04 1.66 2 2 C1.67 8.27 1.34 14.54 1 21 C0.67 21 0.34 21 0 21 C0 14.07 0 7.14 0 0 Z " fill="#D76E77" transform="translate(453,223)"/>
<path d="M0 0 C0.99 0 1.98 0 3 0 C4.10228696 4.40914783 4.07654536 8.48382401 4 13 C0.30581799 14.231394 -2.2056261 13.64432764 -6 13 C-6 11.02 -6 9.04 -6 7 C-6.99 6.67 -7.98 6.34 -9 6 C-8.67 5.34 -8.34 4.68 -8 4 C-5.66666667 3.33333333 -3.33333333 2.66666667 -1 2 C-0.67 1.34 -0.34 0.68 0 0 Z " fill="#EA3645" transform="translate(394,115)"/>
<path d="M0 0 C5 1 5 1 7 3 C6.01 3 5.02 3 4 3 C4 9.27 4 15.54 4 22 C4.99 22.33 5.98 22.66 7 23 C6.34 23.99 5.68 24.98 5 26 C3.35 26 1.7 26 0 26 C0 17.42 0 8.84 0 0 Z " fill="#153757" transform="translate(144,276)"/>
<path d="M0 0 C0.66 0 1.32 0 2 0 C2.66 2.64 3.32 5.28 4 8 C4.66 5.36 5.32 2.72 6 0 C6.33 0 6.66 0 7 0 C7 5.94 7 11.88 7 18 C8.65 16.35 10.3 14.7 12 13 C14.8125 12.1875 14.8125 12.1875 17 12 C15.83920845 15.48237464 14.93131619 16.01581316 12 18.0625 C8.98371816 20.07953853 8.98371816 20.07953853 7 23 C5.68 23 4.36 23 3 23 C2.49490361 19.91747911 1.99682001 16.83386475 1.5 13.75 C1.35691406 12.87730469 1.21382812 12.00460937 1.06640625 11.10546875 C0.93105469 10.26113281 0.79570312 9.41679687 0.65625 8.546875 C0.53056641 7.77182617 0.40488281 6.99677734 0.27539062 6.19824219 C0 4 0 4 0 0 Z " fill="#E4E7E9" transform="translate(203,312)"/>
<path d="M0 0 C1.47906892 -0.02689216 2.95827483 -0.04634621 4.4375 -0.0625 C5.26121094 -0.07410156 6.08492188 -0.08570313 6.93359375 -0.09765625 C9 0 9 0 10 1 C10.37086093 6.8410596 10.37086093 6.8410596 10 9 C6.3558226 11.4294516 4.28758728 11.16179575 0 11 C-0.19491452 9.54263913 -0.38069358 8.08405407 -0.5625 6.625 C-0.66691406 5.81289063 -0.77132813 5.00078125 -0.87890625 4.1640625 C-1 2 -1 2 0 0 Z " fill="#C9D7D7" transform="translate(314,321)"/>
<path d="M0 0 C13.11610364 -0.58150213 13.11610364 -0.58150213 19 3 C20.4375 5.1875 20.4375 5.1875 21 7 C18.625 7.625 18.625 7.625 16 8 C15.34 7.34 14.68 6.68 14 6 C11.79749008 5.53993654 11.79749008 5.53993654 9.375 5.375 C7.93125 5.25125 6.4875 5.1275 5 5 C5 10.94 5 16.88 5 23 C4.67 23 4.34 23 4 23 C4 16 4 9 4 2 C2.68 1.34 1.36 0.68 0 0 Z " fill="#39576E" transform="translate(144,275)"/>
<path d="M0 0 C0 3.3 0 6.6 0 10 C-3.96 10 -7.92 10 -12 10 C-9.56521739 2.45217391 -9.56521739 2.45217391 -7.125 0.5 C-5 0 -5 0 0 0 Z " fill="#224158" transform="translate(121,220)"/>
<path d="M0 0 C3.3 0 6.6 0 10 0 C10 7.59 10 15.18 10 23 C9.67 23 9.34 23 9 23 C8.67 16.4 8.34 9.8 8 3 C5.03 2.505 5.03 2.505 2 2 C2 10.58 2 19.16 2 28 C0 26 0 26 -0.22705078 23.38623047 C-0.21657715 22.30744629 -0.20610352 21.22866211 -0.1953125 20.1171875 C-0.18886719 18.95058594 -0.18242187 17.78398437 -0.17578125 16.58203125 C-0.15902344 15.35871094 -0.14226562 14.13539063 -0.125 12.875 C-0.11597656 11.64394531 -0.10695313 10.41289062 -0.09765625 9.14453125 C-0.07402548 6.09616185 -0.04108054 3.04817618 0 0 Z " fill="#DC7885" transform="translate(359,222)"/>
<path d="M0 0 C0.66 0.33 1.32 0.66 2 1 C2 7.93 2 14.86 2 22 C0.02 22.99 0.02 22.99 -2 24 C-2 16.41 -2 8.82 -2 1 C-1.34 0.67 -0.68 0.34 0 0 Z " fill="#1B3F5C" transform="translate(275,278)"/>
<path d="M0 0 C5.66153846 2.33846154 5.66153846 2.33846154 7.375 5.6875 C7.58125 6.450625 7.7875 7.21375 8 8 C7.01 8.495 7.01 8.495 6 9 C6.33 10.32 6.66 11.64 7 13 C5.68 12.34 4.36 11.68 3 11 C3 8.69 3 6.38 3 4 C2.2575 4.78375 1.515 5.5675 0.75 6.375 C-2 9 -2 9 -4.1875 10 C-6.77553894 11.42788355 -6.96704862 13.28850262 -8 16 C-10.125 18.3125 -10.125 18.3125 -12 20 C-12.33 19.01 -12.66 18.02 -13 17 C-12.34 17 -11.68 17 -11 17 C-10.773125 16.278125 -10.54625 15.55625 -10.3125 14.8125 C-8.75358681 11.47197174 -6.59053053 9.59053053 -4 7 C-3.13880866 4.82653432 -3.13880866 4.82653432 -3 3 C-2.34 3 -1.68 3 -1 3 C-0.67 2.01 -0.34 1.02 0 0 Z " fill="#EBEFF0" transform="translate(265,177)"/>
<path d="M0 0 C0.66 0.33 1.32 0.66 2 1 C2 3.64 2 6.28 2 9 C2.99 8.01 3.98 7.02 5 6 C6.23922223 9.71766668 5.57018942 11.43889537 4.5625 15.1875 C4.27503906 16.27417969 3.98757812 17.36085937 3.69140625 18.48046875 C3.46324219 19.31191406 3.23507813 20.14335937 3 21 C0 20 0 20 -1.0625 18.0625 C-1.371875 17.381875 -1.68125 16.70125 -2 16 C-2.66 15.34 -3.32 14.68 -4 14 C-2.68 9.38 -1.36 4.76 0 0 Z " fill="#183954" transform="translate(180,231)"/>
<path d="M0 0 C0 0.99 0 1.98 0 3 C-5.34883721 8 -5.34883721 8 -8 8 C-8 8.99 -8 9.98 -8 11 C-8.66 11 -9.32 11 -10 11 C-10.66 18.26 -11.32 25.52 -12 33 C-11.34 33 -10.68 33 -10 33 C-10 34.98 -10 36.96 -10 39 C-14.44630275 33.97374472 -14.31304103 28.01007904 -14.20703125 21.58203125 C-13.55143481 13.40563033 -10.08097263 7.45325933 -4 2 C-1.77734375 0.77734375 -1.77734375 0.77734375 0 0 Z " fill="#D45A69" transform="translate(319,209)"/>
<path d="M0 0 C2.97 0 5.94 0 9 0 C9 11.88 9 23.76 9 36 C6.03 36 3.06 36 0 36 C0 34.68 0 33.36 0 32 C0.66 32 1.32 32 2 32 C2 32.66 2 33.32 2 34 C3.65 34 5.3 34 7 34 C7.33 23.11 7.66 12.22 8 1 C5.69 1 3.38 1 1 1 C1 7.6 1 14.2 1 21 C0.67 21 0.34 21 0 21 C0 14.07 0 7.14 0 0 Z " fill="#C5525C" transform="translate(386,223)"/>
<path d="M0 0 C0.99 0.33 1.98 0.66 3 1 C4.47965926 1.14573058 5.96403843 1.24663268 7.44921875 1.31640625 C8.29677734 1.35830078 9.14433594 1.40019531 10.01757812 1.44335938 C10.89865234 1.48267578 11.77972656 1.52199219 12.6875 1.5625 C13.58017578 1.60568359 14.47285156 1.64886719 15.39257812 1.69335938 C17.59490108 1.79935353 19.79733473 1.90142051 22 2 C22.33 2.66 22.66 3.32 23 4 C17.39 4 11.78 4 6 4 C11.28 4.99 16.56 5.98 22 7 C22 7.99 22 8.98 22 10 C21.23816406 9.79503906 20.47632813 9.59007812 19.69140625 9.37890625 C13.43793676 7.74722695 7.44066194 6.53672183 1 6 C0.67 4.02 0.34 2.04 0 0 Z " fill="#E5EBEA" transform="translate(194,205)"/>
<path d="M0 0 C1.98 0.99 1.98 0.99 4 2 C4 9.92 4 17.84 4 26 C2.68 26 1.36 26 0 26 C0 17.42 0 8.84 0 0 Z " fill="#153652" transform="translate(183,276)"/>
<path d="M0 0 C1.65319835 0.31801983 3.30038001 0.67002132 4.9375 1.0625 C6.13375 1.248125 7.33 1.43375 8.5625 1.625 C9.34625 1.769375 10.13 1.91375 10.9375 2.0625 C10.9375 2.3925 10.9375 2.7225 10.9375 3.0625 C6.1041528 3.14583357 1.70057437 3.01511487 -3.0625 2.0625 C-2.7325 2.7225 -2.4025 3.3825 -2.0625 4.0625 C-0.00147765 4.45388678 -0.00147765 4.45388678 2.375 4.5625 C6.7162307 4.8412307 6.7162307 4.8412307 8.9375 7.0625 C8.17824219 7.03929687 7.41898437 7.01609375 6.63671875 6.9921875 C5.14591797 6.96511719 5.14591797 6.96511719 3.625 6.9375 C2.63886719 6.91429687 1.65273438 6.89109375 0.63671875 6.8671875 C-2.28656527 6.85567361 -2.28656527 6.85567361 -5.0625 9.0625 C-5.3925 8.0725 -5.7225 7.0825 -6.0625 6.0625 C-7.3825 7.0525 -8.7025 8.0425 -10.0625 9.0625 C-10.7225 8.7325 -11.3825 8.4025 -12.0625 8.0625 C-6.28233326 -0.68430861 -6.28233326 -0.68430861 0 0 Z " fill="#D05462" transform="translate(319.0625,187.9375)"/>
<path d="M0 0 C1.05930393 3.44273776 1.51184846 6.41706078 1 10 C-1.25132801 12.590759 -3.9268438 14.4634219 -7 16 C-9.6723621 16.13415472 -12.32250488 16.04318541 -15 16 C-15 15.67 -15 15.34 -15 15 C-13.02 15 -11.04 15 -9 15 C-9 14.34 -9 13.68 -9 13 C-7.35 13 -5.7 13 -4 13 C-4.33 12.01 -4.66 11.02 -5 10 C-8.63 9.34 -12.26 8.68 -16 8 C-16 7.01 -16 6.02 -16 5 C-15.2265625 5.495 -15.2265625 5.495 -14.4375 6 C-11.08597404 7.37498501 -8.59034613 7.38467994 -5 7 C-2.09282927 4.78136971 -1.16018357 3.48055071 0 0 Z " fill="#DC5161" transform="translate(385,244)"/>
<path d="M0 0 C-0.99 0.495 -0.99 0.495 -2 1 C-2.72159424 2.64363134 -3.39351421 4.31050386 -4 6 C-4.66 6 -5.32 6 -6 6 C-6.33 7.32 -6.66 8.64 -7 10 C-8.32 9.67 -9.64 9.34 -11 9 C-11 7.68 -11 6.36 -11 5 C-11.66 5 -12.32 5 -13 5 C-13 3.68 -13 2.36 -13 1 C-11.39796533 0.63631108 -9.79325797 0.28438048 -8.1875 -0.0625 C-7.29417969 -0.25972656 -6.40085937 -0.45695313 -5.48046875 -0.66015625 C-3 -1 -3 -1 0 0 Z " fill="#F6FCFC" transform="translate(299,198)"/>
<path d="M0 0 C0.23976563 0.59296875 0.47953125 1.1859375 0.7265625 1.796875 C2.26771946 4.46317109 3.81847372 5.54564915 6.375 7.25 C7.70724609 8.14138672 7.70724609 8.14138672 9.06640625 9.05078125 C10.03449219 9.69402344 11.00257813 10.33726562 12 11 C13.04027344 11.73605469 14.08054687 12.47210938 15.15234375 13.23046875 C16.19519531 13.95878906 17.23804688 14.68710938 18.3125 15.4375 C19.27800781 16.11683594 20.24351562 16.79617187 21.23828125 17.49609375 C24.15743222 19.08573042 25.73720008 19.33876065 29 19 C29 20.65 29 22.3 29 24 C23.47588086 23.61459634 21.75028799 21.92075563 18 18 C14.74946616 15.54493131 11.37958144 13.27299282 8 11 C7.12601562 10.4121875 6.25203125 9.824375 5.3515625 9.21875 C3.23873463 7.80575471 1.12194473 6.39925341 -1 5 C-0.67 3.35 -0.34 1.7 0 0 Z " fill="#ACAEAF" transform="translate(273,174)"/>
<path d="M0 0 C0.66 0 1.32 0 2 0 C2.33 0.99 2.66 1.98 3 3 C3.66 3.309375 4.32 3.61875 5 3.9375 C5.99 4.4634375 5.99 4.4634375 7 5 C7.3721042 6.32303717 7.70630173 7.65737935 8 9 C8.99 9.66 9.98 10.32 11 11 C8.36 14.96 5.72 18.92 3 23 C2 19 2 19 3 17 C3.66 17 4.32 17 5 17 C5 16.34 5 15.68 5 15 C5.66 15 6.32 15 7 15 C6.67 14.01 6.34 13.02 6 12 C3.12579877 14.71604715 3.12579877 14.71604715 1 18 C0.34 18 -0.32 18 -1 18 C0.55701931 13.32894208 3.08447373 9.91294315 6 6 C5.195625 5.7525 4.39125 5.505 3.5625 5.25 C1 4 1 4 0.1875 1.875 C0.0946875 0.946875 0.0946875 0.946875 0 0 Z " fill="#D15365" transform="translate(380,118)"/>
<path d="M0 0 C0 4.04531221 -1.40482787 4.87248487 -4 8 C-6.36954566 11.30823077 -8.68611171 14.6526616 -11 18 C-11.66 17.67 -12.32 17.34 -13 17 C-12.34 16.01 -11.68 15.02 -11 14 C-11.99 14 -12.98 14 -14 14 C-13.45285711 10.16999977 -11.89486792 8.49280294 -9 6 C-7.35178756 4.96986723 -5.68496298 3.96885372 -4 3 C-2.65368175 2.01755155 -1.31558703 1.02323436 0 0 Z " fill="#F5F9FA" transform="translate(229,318)"/>
<path d="M0 0 C0.66 0 1.32 0 2 0 C2 0.66 2 1.32 2 2 C1.34 2 0.68 2 0 2 C-0.33 3.98 -0.66 5.96 -1 8 C-1.66 8 -2.32 8 -3 8 C-3.0825 8.78375 -3.165 9.5675 -3.25 10.375 C-3.4975 11.24125 -3.745 12.1075 -4 13 C-5.32467746 13.6837045 -6.65863633 14.34964186 -8 15 C-8.69658363 16.65438613 -9.36096883 18.32254318 -10 20 C-12.125 22.3125 -12.125 22.3125 -14 24 C-14.66 23.67 -15.32 23.34 -16 23 C-15.59910156 22.42894531 -15.19820313 21.85789063 -14.78515625 21.26953125 C-13.93244141 20.05330078 -13.93244141 20.05330078 -13.0625 18.8125 C-12.43085938 17.91402344 -11.79921875 17.01554687 -11.1484375 16.08984375 C-9.61460869 13.88391904 -8.10000486 11.67101626 -6.6015625 9.44140625 C-6.2005835 8.84932373 -5.79960449 8.25724121 -5.38647461 7.6472168 C-4.5927398 6.47398915 -3.80439598 5.2970946 -3.02172852 4.11645508 C-2.06502853 2.7085973 -1.03812994 1.34893463 0 0 Z " fill="#F9D8D8" transform="translate(391,128)"/>
<path d="M0 0 C7.54107431 -0.28421134 14.79783869 0.79174769 22.25 1.875 C23.51585937 2.04902344 24.78171875 2.22304688 26.0859375 2.40234375 C27.30023438 2.57636719 28.51453125 2.75039063 29.765625 2.9296875 C30.86680664 3.08679199 31.96798828 3.24389648 33.10253906 3.40576172 C35.74808652 3.94833524 37.67834596 4.65473594 40 6 C30.49095101 6.32417212 21.38695104 5.33418593 12 4 C12 3.34 12 2.68 12 2 C10.4221875 2.0309375 10.4221875 2.0309375 8.8125 2.0625 C5.67295096 2.01103198 3.03116604 1.73482813 0 1 C0 0.67 0 0.34 0 0 Z " fill="#E0E4E2" transform="translate(144,352)"/>
<path d="M0 0 C2.33944736 0.28730055 4.6739143 0.61936779 7 1 C7.6875 3.3125 7.6875 3.3125 8 6 C6.875 7.8125 6.875 7.8125 5 9 C2.375 9.25 2.375 9.25 0 9 C-1 8 -1 8 -1.125 4.5 C-1 1 -1 1 0 0 Z " fill="#8A3F5B" transform="translate(328,151)"/>
<path d="M0 0 C1.09570312 0.19464844 2.19140625 0.38929688 3.3203125 0.58984375 C4.16335938 0.74582031 5.00640625 0.90179688 5.875 1.0625 C5.875 1.3925 5.875 1.7225 5.875 2.0625 C2.905 2.0625 -0.065 2.0625 -3.125 2.0625 C-3.125 9.9825 -3.125 17.9025 -3.125 26.0625 C-5.00328245 22.3059351 -5.35028293 21.33126779 -5.1875 17.4375 C-5.01061667 14.12003853 -5.01061667 14.12003853 -6.125 11.0625 C-6.19496014 9.35547265 -6.20940154 7.64581997 -6.1875 5.9375 C-6.17847656 5.02742187 -6.16945313 4.11734375 -6.16015625 3.1796875 C-6.14855469 2.48101562 -6.13695312 1.78234375 -6.125 1.0625 C-6.785 0.7325 -7.445 0.4025 -8.125 0.0625 C-5.2144446 -1.3927777 -3.16650948 -0.57266661 0 0 Z " fill="#FDDFE1" transform="translate(430.125,220.9375)"/>
<path d="M0 0 C0.33 0 0.66 0 1 0 C1.99 2.97 2.98 5.94 4 9 C8.455 8.505 8.455 8.505 13 8 C13.33 6.68 13.66 5.36 14 4 C14.99 4.33 15.98 4.66 17 5 C16.67 5.99 16.34 6.98 16 8 C15.34 8 14.68 8 14 8 C13.34 9.32 12.68 10.64 12 12 C5.56025419 11.37679879 -0.67572401 10.35991738 -7 9 C-7 8.67 -7 8.34 -7 8 C-3.535 7.505 -3.535 7.505 0 7 C0 4.69 0 2.38 0 0 Z " fill="#FDE4E3" transform="translate(327,180)"/>
<path d="M0 0 C3.63 0 7.26 0 11 0 C11 0.66 11 1.32 11 2 C8.36 2 5.72 2 3 2 C3 3.65 3 5.3 3 7 C8.445 6.505 8.445 6.505 14 6 C10.89271553 9.10728447 8.56090729 8.9724144 4.1875 9.1875 C0.15589407 9.14968006 -3.18654432 8.27115189 -7 7 C-7 6.67 -7 6.34 -7 6 C-3.535 5.505 -3.535 5.505 0 5 C0 3.68 0 2.36 0 1 C0 0.67 0 0.34 0 0 Z " fill="#DA5B66" transform="translate(325,251)"/>
<path d="M0 0 C0 0.99 0 1.98 0 3 C-0.83192871 3.12060791 -0.83192871 3.12060791 -1.68066406 3.24365234 C-4.20487398 3.61367977 -6.72738939 3.99422859 -9.25 4.375 C-10.55904297 4.56449219 -10.55904297 4.56449219 -11.89453125 4.7578125 C-12.73886719 4.88671875 -13.58320313 5.015625 -14.453125 5.1484375 C-15.22817383 5.26364746 -16.00322266 5.37885742 -16.80175781 5.49755859 C-19.1114356 6.02547029 -20.89503189 6.93553733 -23 8 C-25.75 8.125 -25.75 8.125 -28 8 C-27.67 6.68 -27.34 5.36 -27 4 C-26.42894531 3.96261719 -25.85789062 3.92523438 -25.26953125 3.88671875 C-18.96272922 3.37535642 -13.01629149 2.1655481 -6.8828125 0.62109375 C-4 0 -4 0 0 0 Z " fill="#A6ADAB" transform="translate(365,147)"/>
<path d="M0 0 C1 3 1 3 0.36328125 4.9375 C-3.1259542 11.78625954 -3.1259542 11.78625954 -7 14 C-5.35 14.33 -3.7 14.66 -2 15 C-2.5775 15.2475 -3.155 15.495 -3.75 15.75 C-6.3002997 17.16683317 -8.01785701 18.87627537 -10 21 C-10 20.34 -10 19.68 -10 19 C-10.66 19 -11.32 19 -12 19 C-11.71125 18.29875 -11.4225 17.5975 -11.125 16.875 C-9.97866412 13.94547497 -8.97374346 10.99078347 -8 8 C-7.67 8.66 -7.34 9.32 -7 10 C-6.34 10 -5.68 10 -5 10 C-4.731875 9.278125 -4.46375 8.55625 -4.1875 7.8125 C-3.01017502 5.02409874 -1.60854116 2.55904276 0 0 Z " fill="#DBE2E2" transform="translate(320,172)"/>
<path d="M0 0 C0.33 0.66 0.66 1.32 1 2 C1.99 2 2.98 2 4 2 C2.75537955 5.73386136 1.08692325 6.64805848 -2 9 C-3.0173873 9.98230498 -4.02596117 10.97469597 -5 12 C-6.25 8.8125 -6.25 8.8125 -7 5 C-4.12765957 0 -4.12765957 0 0 0 Z " fill="#D14F63" transform="translate(292,216)"/>
<path d="M0 0 C0.66 0.33 1.32 0.66 2 1 C1.60167969 1.44730469 1.20335937 1.89460937 0.79296875 2.35546875 C-1.62809 5.11818542 -3.82199908 7.69673917 -5.6875 10.875 C-7 13 -7 13 -10 14 C-11.20882096 16.00016466 -11.20882096 16.00016466 -12 18 C-12.33 17.01 -12.66 16.02 -13 15 C-12.67 14.67 -12.34 14.34 -12 14 C-12.99 13.67 -13.98 13.34 -15 13 C-15.33 13.66 -15.66 14.32 -16 15 C-16.66 14.34 -17.32 13.68 -18 13 C-16.865625 12.71125 -15.73125 12.4225 -14.5625 12.125 C-13.386875 11.75375 -12.21125 11.3825 -11 11 C-10.67 10.34 -10.34 9.68 -10 9 C-9.01 9.33 -8.02 9.66 -7 10 C-6.67 8.68 -6.34 7.36 -6 6 C-5.34 6 -4.68 6 -4 6 C-3.71125 5.195625 -3.4225 4.39125 -3.125 3.5625 C-2 1 -2 1 0 0 Z " fill="#E4EBEB" transform="translate(299,198)"/>
<path d="M0 0 C5.28 0.33 10.56 0.66 16 1 C16 1.66 16 2.32 16 3 C18.64 3 21.28 3 24 3 C20.842224 5.105184 20.04602866 5.25289344 16.4375 5.1875 C15.25994141 5.17783203 15.25994141 5.17783203 14.05859375 5.16796875 C12 5 12 5 10 4 C8.46331135 3.77532169 6.92031946 3.59203195 5.375 3.4375 C4.55773437 3.35371094 3.74046875 3.26992187 2.8984375 3.18359375 C2.27195312 3.12300781 1.64546875 3.06242188 1 3 C0.67 2.01 0.34 1.02 0 0 Z " fill="#DE374D" transform="translate(316,190)"/>
<path d="M0 0 C1.98 0 3.96 0 6 0 C8.25684543 5.36000789 9.36263859 9.1977825 9 15 C8.01 15.33 7.02 15.66 6 16 C2.74398249 6.98468271 2.74398249 6.98468271 3.8125 2.875 C4.204375 2.25625 4.59625 1.6375 5 1 C3.35 1 1.7 1 0 1 C0 0.67 0 0.34 0 0 Z " fill="#284560" transform="translate(309,275)"/>
<path d="M0 0 C0.86659748 5.63288364 -1.38985804 8.7463061 -4.39453125 13.2421875 C-5.18923828 14.11230469 -5.18923828 14.11230469 -6 15 C-6.99 15 -7.98 15 -9 15 C-8.855625 14.46375 -8.71125 13.9275 -8.5625 13.375 C-7.91285007 10.9285843 -7.91285007 10.9285843 -7.8125 8.0625 C-6.94917346 4.80842303 -4.00131641 0 0 0 Z " fill="#DD415C" transform="translate(373,149)"/>
<path d="M0 0 C2.31 0 4.62 0 7 0 C7.99 1.98 8.98 3.96 10 6 C9.34 6.66 8.68 7.32 8 8 C5 7.875 5 7.875 2 7 C0.13209062 4.45285085 0 3.19131 0 0 Z " fill="#F0F9F9" transform="translate(276,201)"/>
<path d="M0 0 C1.125 3.75 1.125 3.75 0 6 C-0.66 6 -1.32 6 -2 6 C-2.66 8.97 -3.32 11.94 -4 15 C-5.32 14.67 -6.64 14.34 -8 14 C-8 14.66 -8 15.32 -8 16 C-10.97 16 -13.94 16 -17 16 C-17 15.34 -17 14.68 -17 14 C-15.88625 14.061875 -14.7725 14.12375 -13.625 14.1875 C-12.42875 14.125625 -11.2325 14.06375 -10 14 C-9.34 13.01 -8.68 12.02 -8 11 C-7.34 11 -6.68 11 -6 11 C-5.83177734 10.12601563 -5.83177734 10.12601563 -5.66015625 9.234375 C-4.93999124 6.79689343 -3.95620605 5.2749414 -2.4375 3.25 C-1.98246094 2.63640625 -1.52742188 2.0228125 -1.05859375 1.390625 C-0.70925781 0.93171875 -0.35992187 0.4728125 0 0 Z " fill="#DD5261" transform="translate(349,177)"/>
<path d="M0 0 C0.1567564 7.71589817 -0.32546899 15.31516461 -1 23 C-3.4375 22.1875 -3.4375 22.1875 -6 21 C-6.33 20.01 -6.66 19.02 -7 18 C-5.68 18 -4.36 18 -3 18 C-2.93941406 17.08476563 -2.87882812 16.16953125 -2.81640625 15.2265625 C-2.69072266 13.44378906 -2.69072266 13.44378906 -2.5625 11.625 C-2.48128906 10.44164063 -2.40007812 9.25828125 -2.31640625 8.0390625 C-2 5 -2 5 -1 3 C-3.31 3.33 -5.62 3.66 -8 4 C-7 2 -7 2 -4 0.875 C-1 0 -1 0 0 0 Z " fill="#CB4F61" transform="translate(400,110)"/>
<path d="M0 0 C1.08377656 3.25132969 1.35588434 6.08607561 1.625 9.5 C1.72039062 10.6446875 1.81578125 11.789375 1.9140625 12.96875 C2 16 2 16 1 19 C1.09406754 21.29453495 1.09406754 21.29453495 1.4375 23.6875 C1.53933594 24.49574219 1.64117187 25.30398437 1.74609375 26.13671875 C1.82988281 26.75160156 1.91367187 27.36648437 2 28 C-0.19698784 26.26017415 -0.94121423 25.39913924 -1.35644531 22.57983398 C-1.34709961 21.64469971 -1.33775391 20.70956543 -1.328125 19.74609375 C-1.32296875 18.72708984 -1.3178125 17.70808594 -1.3125 16.65820312 C-1.291875 15.59537109 -1.27125 14.53253906 -1.25 13.4375 C-1.24484375 12.37080078 -1.2396875 11.30410156 -1.234375 10.20507812 C-1.15436126 2.30872253 -1.15436126 2.30872253 0 0 Z " fill="#FDF3F8" transform="translate(370,222)"/>
<path d="M0 0 C0.66 0 1.32 0 2 0 C-1.00013547 6.80518532 -7.9716394 10.98109293 -14 15 C-14.66 15 -15.32 15 -16 15 C-16 15.66 -16 16.32 -16 17 C-16.66 17 -17.32 17 -18 17 C-17.33379616 14.33518465 -16.70931212 12.49966322 -14.4140625 10.8828125 C-13.17810338 10.21007526 -11.93306853 9.55375489 -10.6796875 8.9140625 C-8.77499466 7.87755524 -7.48506242 6.56322361 -6 5 C-5.34 5 -4.68 5 -4 5 C-4 4.34 -4 3.68 -4 3 C-2.68 2.67 -1.36 2.34 0 2 C0 1.34 0 0.68 0 0 Z " fill="#ECF1EF" transform="translate(258,182)"/>
<path d="M0 0 C1.32 0.33 2.64 0.66 4 1 C-0.07127643 7.55258692 -4.24505598 13.92133531 -9 20 C-9.33 18.68 -9.66 17.36 -10 16 C-9.34 16 -8.68 16 -8 16 C-8.33 14.68 -8.66 13.36 -9 12 C-8.01 12 -7.02 12 -6 12 C-5.731875 11.4225 -5.46375 10.845 -5.1875 10.25 C-4 8 -4 8 -2.4375 6 C-0.96806014 3.95556194 -0.43835352 2.45477972 0 0 Z " fill="#FDE3E3" transform="translate(354,164)"/>
<path d="M0 0 C3.40312738 1.05875074 6.01353231 2.00902154 9 4 C8.34 5.32 7.68 6.64 7 8 C4.03 8 1.06 8 -2 8 C-2.33 7.34 -2.66 6.68 -3 6 C-2.01 6 -1.02 6 0 6 C0 4.02 0 2.04 0 0 Z " fill="#E64456" transform="translate(318,249)"/>
<path d="M0 0 C-0.43570312 0.4125 -0.87140625 0.825 -1.3203125 1.25 C-5.26220607 5.07244225 -8.61082411 8.98055975 -11.73828125 13.49609375 C-12.15464844 13.99238281 -12.57101562 14.48867187 -13 15 C-13.66 15 -14.32 15 -15 15 C-15 13.68 -15 12.36 -15 11 C-13.66666667 10 -12.33333333 9 -11 8 C-10.29295241 6.8360909 -9.6289159 5.64541783 -9 4.4375 C-7 1 -7 1 -4.9375 -0.5 C-3 -1 -3 -1 0 0 Z " fill="#F7E9E7" transform="translate(304,201)"/>
<path d="M0 0 C1.32 0 2.64 0 4 0 C5.125 5.75 5.125 5.75 4 8 C1.69 8 -0.62 8 -3 8 C-3.33 7.01 -3.66 6.02 -4 5 C-3.34 5 -2.68 5 -2 5 C-1.34 3.35 -0.68 1.7 0 0 Z " fill="#F5E2E6" transform="translate(356,196)"/>
<path d="M0 0 C2 0 2 0 3.54296875 1.390625 C4.08566406 2.00421875 4.62835938 2.6178125 5.1875 3.25 C5.73792969 3.85328125 6.28835938 4.4565625 6.85546875 5.078125 C8 7 8 7 7.67578125 9.234375 C7.45277344 9.81703125 7.22976563 10.3996875 7 11 C3.94042532 10.67218843 2.94163866 9.94321599 0.6875 7.75 C-1 5 -1 5 -0.75 2.1875 C-0.5025 1.465625 -0.255 0.74375 0 0 Z " fill="#EAEFEF" transform="translate(341,165)"/>
<path d="M0 0 C1.4540625 0.0309375 1.4540625 0.0309375 2.9375 0.0625 C3.2675 2.3725 3.5975 4.6825 3.9375 7.0625 C1.2975 7.0625 -1.3425 7.0625 -4.0625 7.0625 C-4.10504356 5.06295254 -4.10330783 3.06208364 -4.0625 1.0625 C-3.0625 0.0625 -3.0625 0.0625 0 0 Z " fill="#0F3959" transform="translate(201.0625,247.9375)"/>
<path d="M0 0 C0.04254356 1.99954746 0.04080783 4.00041636 0 6 C-1 7 -1 7 -3.5 7.125 C-6 7 -6 7 -7 6 C-7.04080783 4.00041636 -7.04254356 1.99954746 -7 0 C-4.3333581 -1.33332095 -2.83319697 -0.67102033 0 0 Z " fill="#6D394B" transform="translate(273,172)"/>
<path d="M0 0 C0.33 0 0.66 0 1 0 C1.05849554 3.20825562 1.09376162 6.41637233 1.125 9.625 C1.14175781 10.52863281 1.15851563 11.43226563 1.17578125 12.36328125 C1.21221009 17.35403258 0.90094915 21.30567137 -1 26 C-1.165 26.928125 -1.33 27.85625 -1.5 28.8125 C-1.665 29.534375 -1.83 30.25625 -2 31 C-2.66 31.33 -3.32 31.66 -4 32 C-4.33 31.01 -4.66 30.02 -5 29 C-4.67 28.34 -4.34 27.68 -4 27 C-4.66 26.67 -5.32 26.34 -6 26 C-5.360625 25.21625 -4.72125 24.4325 -4.0625 23.625 C-1.48598688 20.34580148 -0.87355878 18.71911667 -0.68359375 14.6484375 C-0.64169922 13.79765625 -0.59980469 12.946875 -0.55664062 12.0703125 C-0.51732422 11.18085938 -0.47800781 10.29140625 -0.4375 9.375 C-0.37272461 8.02921875 -0.37272461 8.02921875 -0.30664062 6.65625 C-0.20043139 4.43765717 -0.09838806 2.2189512 0 0 Z " fill="#DA4E5D" transform="translate(454,225)"/>
<path d="M0 0 C0.33 1.32 0.66 2.64 1 4 C0.34 4 -0.32 4 -1 4 C-1 4.66 -1 5.32 -1 6 C-1.66 6 -2.32 6 -3 6 C-3.66 7.98 -4.32 9.96 -5 12 C-5.66 12 -6.32 12 -7 12 C-7.33 13.32 -7.66 14.64 -8 16 C-8.66 16 -9.32 16 -10 16 C-10 14.35 -10 12.7 -10 11 C-9.01 11 -8.02 11 -7 11 C-7 9.68 -7 8.36 -7 7 C-6.34 7 -5.68 7 -5 7 C-4.731875 6.21625 -4.46375 5.4325 -4.1875 4.625 C-3 2 -3 2 0 0 Z " fill="#E23B51" transform="translate(386,129)"/>
<path d="M0 0 C0.66 0.33 1.32 0.66 2 1 C1.67 2.65 1.34 4.3 1 6 C-0.65 6.33 -2.3 6.66 -4 7 C-4.33 8.32 -4.66 9.64 -5 11 C-6.32 11.33 -7.64 11.66 -9 12 C-8.375 8.6875 -8.375 8.6875 -7 5 C-3.9375 3.1875 -3.9375 3.1875 -1 2 C-0.67 1.34 -0.34 0.68 0 0 Z " fill="#DC4054" transform="translate(312,193)"/>
<path d="M0 0 C0.66 0.99 1.32 1.98 2 3 C1.3503125 4.04800781 1.3503125 4.04800781 0.6875 5.1171875 C0.130625 6.02726563 -0.42625 6.93734375 -1 7.875 C-1.556875 8.77992188 -2.11375 9.68484375 -2.6875 10.6171875 C-4.16082329 12.83857467 -4.16082329 12.83857467 -4 15 C-3.01 15.66 -2.02 16.32 -1 17 C-2.65 18.32 -4.3 19.64 -6 21 C-5.67 19.35 -5.34 17.7 -5 16 C-6.32 15.34 -7.64 14.68 -9 14 C-8.2575 13.360625 -7.515 12.72125 -6.75 12.0625 C-3.29672024 8.65841226 -1.73676741 4.45349856 0 0 Z " fill="#DE5060" transform="translate(346,236)"/>
<path d="M0 0 C2.3129482 2.3129482 2.49580975 3.47904875 3.125 6.625 C3.29257812 7.44226563 3.46015625 8.25953125 3.6328125 9.1015625 C3.81457031 10.04128906 3.81457031 10.04128906 4 11 C1.69 11 -0.62 11 -3 11 C-2.01 7.37 -1.02 3.74 0 0 Z " fill="#E6EFF3" transform="translate(311,281)"/>
<path d="M0 0 C1.32 0 2.64 0 4 0 C4 8.58 4 17.16 4 26 C2.68 26 1.36 26 0 26 C0.33 24.68 0.66 23.36 1 22 C1.66 22 2.32 22 3 22 C3 15.4 3 8.8 3 2 C2.01 2 1.02 2 0 2 C0 1.34 0 0.68 0 0 Z " fill="#1A3349" transform="translate(246,276)"/>
<path d="M0 0 C0 1.65 0 3.3 0 5 C-3.3 5.33 -6.6 5.66 -10 6 C-9.67 4.68 -9.34 3.36 -9 2 C-2.25 0 -2.25 0 0 0 Z " fill="#EA4151" transform="translate(450,252)"/>
<path d="M0 0 C0.8125 1.6875 0.8125 1.6875 1 4 C-1.0625 6.375 -1.0625 6.375 -4 9 C-5.11063496 10.09766026 -6.21488608 11.20181925 -7.3125 12.3125 C-8.199375 13.199375 -9.08625 14.08625 -10 15 C-10.99 14.67 -11.98 14.34 -13 14 C-9.13600177 9.51241704 -5.25041782 5.12540553 -1 1 C-0.67 0.67 -0.34 0.34 0 0 Z " fill="#FBDEDA" transform="translate(315,196)"/>
<path d="M0 0 C1.63001953 0.01353516 1.63001953 0.01353516 3.29296875 0.02734375 C4.12441406 0.03894531 4.95585937 0.05054688 5.8125 0.0625 C5.8125 1.0525 5.8125 2.0425 5.8125 3.0625 C0.8625 3.0625 -4.0875 3.0625 -9.1875 3.0625 C-9.1875 2.4025 -9.1875 1.7425 -9.1875 1.0625 C-5.90230525 -0.03256492 -3.45086585 -0.03710608 0 0 Z " fill="#1D3752" transform="translate(349.1875,298.9375)"/>
<path d="M0 0 C4.62 0 9.24 0 14 0 C14 0.66 14 1.32 14 2 C13.04287109 2.16435547 13.04287109 2.16435547 12.06640625 2.33203125 C11.24011719 2.49058594 10.41382813 2.64914063 9.5625 2.8125 C8.73878906 2.96332031 7.91507812 3.11414063 7.06640625 3.26953125 C6.38449219 3.51058594 5.70257813 3.75164062 5 4 C4.67 4.99 4.34 5.98 4 7 C4.66 7 5.32 7 6 7 C5.67 7.99 5.34 8.98 5 10 C4.16121545 8.71186658 3.32913217 7.41936744 2.5 6.125 C2.0359375 5.40570313 1.571875 4.68640625 1.09375 3.9453125 C0 2 0 2 0 0 Z " fill="#E7EDED" transform="translate(282,196)"/>
<path d="M0 0 C0 0.99 0 1.98 0 3 C-1.71484375 4.53515625 -1.71484375 4.53515625 -3.9375 6.0625 C-6.99278157 8.06958135 -6.99278157 8.06958135 -9 11 C-10.32 11 -11.64 11 -13 11 C-12.8125 9.125 -12.8125 9.125 -12 7 C-10.34561387 6.30341637 -8.67745682 5.63903117 -7 5 C-5.99357052 3.67151309 -4.99307821 2.33849671 -4 1 C-1.8125 0.25 -1.8125 0.25 0 0 Z " fill="#E2E6E7" transform="translate(219,324)"/>
<path d="M0 0 C2.475 0.495 2.475 0.495 5 1 C6.36884358 5.51718381 5.47075246 8.58774263 4 13 C1.99706653 9.99559979 1.50728374 8.29006055 0.875 4.8125 C0.70742187 3.91144531 0.53984375 3.01039063 0.3671875 2.08203125 C0.24601563 1.39496094 0.12484375 0.70789063 0 0 Z " fill="#E5EFF6" transform="translate(173,232)"/>
<path d="M0 0 C0.33 1.32 0.66 2.64 1 4 C0.278125 4.12375 -0.44375 4.2475 -1.1875 4.375 C-4.01564422 4.90815331 -4.01564422 4.90815331 -6.5625 6.125 C-9.24749062 7.08884279 -10.37141956 6.97354831 -13 6 C-12.01 5.67 -11.02 5.34 -10 5 C-10.33 4.34 -10.66 3.68 -11 3 C-7.37 2.01 -3.74 1.02 0 0 Z " fill="#DCE6E3" transform="translate(325,156)"/>
<path d="M0 0 C3.71888239 0.50712033 6.73454239 1.11608215 10 3 C9.01 3 8.02 3 7 3 C6.71125 3.78375 6.4225 4.5675 6.125 5.375 C5 8 5 8 3 10 C2.01 6.7 1.02 3.4 0 0 Z " fill="#819091" transform="translate(254,162)"/>
<path d="M0 0 C2.72869407 0.03287583 5.2966618 0.56397771 8 1 C8 2.32 8 3.64 8 5 C5.36 5.33 2.72 5.66 0 6 C-0.66 4.68 -1.32 3.36 -2 2 C-1.34 1.34 -0.68 0.68 0 0 Z " fill="#0E385B" transform="translate(73,208)"/>
<path d="M0 0 C2.16874252 0.50603992 3.99967627 0.99983813 6 2 C6 3.98 6 5.96 6 8 C4.68 8 3.36 8 2 8 C2 7.34 2 6.68 2 6 C1.34 6 0.68 6 0 6 C0 4.02 0 2.04 0 0 Z " fill="#C6CFD3" transform="translate(266,188)"/>
<path d="M0 0 C-0.268125 0.495 -0.53625 0.99 -0.8125 1.5 C-2.43875493 4.9236946 -3.69515171 8.44132285 -5 12 C-7 10 -7 10 -7.125 6.875 C-7.08375 5.92625 -7.0425 4.9775 -7 4 C-6.01 3.67 -5.02 3.34 -4 3 C-4 2.34 -4 1.68 -4 1 C-2 0 -2 0 0 0 Z " fill="#DA3D4B" transform="translate(360,168)"/>
<path d="M0 0 C0 0.66 0 1.32 0 2 C-6.4150557 4.87940913 -11.97047248 6.5464821 -19 7 C-19 6.34 -19 5.68 -19 5 C-16.2092793 4.16338138 -13.41751988 3.33057263 -10.625 2.5 C-9.8309375 2.26152344 -9.036875 2.02304688 -8.21875 1.77734375 C-7.45820313 1.55175781 -6.69765625 1.32617188 -5.9140625 1.09375 C-5.2123291 0.88427734 -4.5105957 0.67480469 -3.78759766 0.45898438 C-2 0 -2 0 0 0 Z " fill="#D4D8D7" transform="translate(292,167)"/>
<path d="M0 0 C0.99 0.66 1.98 1.32 3 2 C3 2.99 3 3.98 3 5 C0.89915791 6.00696568 -1.20579489 7.0053589 -3.3125 8 C-4.48425781 8.556875 -5.65601563 9.11375 -6.86328125 9.6875 C-10 11 -10 11 -13 11 C-13 10.34 -13 9.68 -13 9 C-12.14535156 8.68546875 -11.29070312 8.3709375 -10.41015625 8.046875 C-9.30542969 7.61890625 -8.20070313 7.1909375 -7.0625 6.75 C-5.96035156 6.33234375 -4.85820312 5.9146875 -3.72265625 5.484375 C-0.85102542 4.29217133 -0.85102542 4.29217133 -0.12109375 1.828125 C-0.08113281 1.22484375 -0.04117187 0.6215625 0 0 Z " fill="#B5BDBD" transform="translate(285,204)"/>
<path d="M0 0 C0.33 0.66 0.66 1.32 1 2 C1.66 2.33 2.32 2.66 3 3 C1.1875 6 1.1875 6 -1 9 C-1.99 9 -2.98 9 -4 9 C-3.67 7.68 -3.34 6.36 -3 5 C-3.66 4.67 -4.32 4.34 -5 4 C-3.35 2.68 -1.7 1.36 0 0 Z " fill="#2A4B60" transform="translate(260,221)"/>
<path d="M0 0 C3.80984844 2.77079887 4.06840752 6.62868145 5 11 C3.35 11 1.7 11 0 11 C0.020625 10.21625 0.04125 9.4325 0.0625 8.625 C0.18684063 6.01885039 0.18684063 6.01885039 -1 4 C-0.5625 1.875 -0.5625 1.875 0 0 Z " fill="#263F57" transform="translate(319,291)"/>
<path d="M0 0 C0.66 0.66 1.32 1.32 2 2 C2.66 1.67 3.32 1.34 4 1 C5.05699482 6.28497409 5.05699482 6.28497409 5 9 C3.0625 11.5 3.0625 11.5 1 13 C0.29826347 8.61414671 -0.10834375 4.44209357 0 0 Z " fill="#E45665" transform="translate(410,225)"/>
<path d="M0 0 C1.98 0.99 1.98 0.99 4 2 C4.9375 4.9375 4.9375 4.9375 5 8 C3.6875 9.875 3.6875 9.875 2 11 C1.34 11 0.68 11 0 11 C0 7.37 0 3.74 0 0 Z " fill="#103857" transform="translate(181,230)"/>
<path d="M0 0 C-3.03525486 2.02350324 -4.19426202 2.32124018 -7.6875 2.625 C-8.49574219 2.69976562 -9.30398438 2.77453125 -10.13671875 2.8515625 C-10.75160156 2.90054688 -11.36648438 2.94953125 -12 3 C-12 3.66 -12 4.32 -12 5 C-13.32 4.67 -14.64 4.34 -16 4 C-15.01 4 -14.02 4 -13 4 C-13 3.34 -13 2.68 -13 2 C-13.66 1.67 -14.32 1.34 -15 1 C-9.42567486 -0.66251802 -5.6932495 -1.18609365 0 0 Z " fill="#DFE4E3" transform="translate(305,165)"/>
<path d="M0 0 C1.485 0.99 1.485 0.99 3 2 C3.40843923 4.71203652 3.13336867 7.2437142 3 10 C2.01 10.33 1.02 10.66 0 11 C-1.49297212 8.01405576 -1.11755228 5.29146376 -1 2 C-0.67 1.34 -0.34 0.68 0 0 Z " fill="#DAEAEF" transform="translate(209,283)"/>
<path d="M0 0 C0.33 0 0.66 0 1 0 C1 1.65 1 3.3 1 5 C1.66 5 2.32 5 3 5 C3 5.66 3 6.32 3 7 C3.66 7 4.32 7 5 7 C4.34 8.98 3.68 10.96 3 13 C2.34 11.68 1.68 10.36 1 9 C0.67 9.66 0.34 10.32 0 11 C-0.66 11 -1.32 11 -2 11 C-1.34 7.37 -0.68 3.74 0 0 Z " fill="#DAE1E4" transform="translate(265,189)"/>
<path d="M0 0 C0.33 0 0.66 0 1 0 C1.18175781 0.62648437 1.36351562 1.25296875 1.55078125 1.8984375 C1.92783203 3.12433594 1.92783203 3.12433594 2.3125 4.375 C2.67794922 5.59316406 2.67794922 5.59316406 3.05078125 6.8359375 C3.91368185 9.33184629 3.91368185 9.33184629 7 11 C5.41590006 10.88512252 3.83271037 10.75765492 2.25 10.625 C0.92742187 10.52058594 0.92742187 10.52058594 -0.421875 10.4140625 C-2.99066382 10.00149945 -4.75841015 9.28839043 -7 8 C-3.535 7.505 -3.535 7.505 0 7 C0 4.69 0 2.38 0 0 Z " fill="#EFD3D6" transform="translate(327,180)"/>
<path d="M0 0 C2.7972908 2.06756277 3.02692273 3.14440371 3.6875 6.6875 C3.790625 7.780625 3.89375 8.87375 4 10 C2.68 10 1.36 10 0 10 C-1.03366148 6.25297715 -1.25733598 3.77200794 0 0 Z " fill="#7F908F" transform="translate(332,136)"/>
<path d="M0 0 C6.27 0.33 12.54 0.66 19 1 C19 1.33 19 1.66 19 2 C17.35 2 15.7 2 14 2 C14 2.66 14 3.32 14 4 C12.04020573 3.71831703 10.08217622 3.42433283 8.125 3.125 C6.48917969 2.88136719 6.48917969 2.88136719 4.8203125 2.6328125 C2 2 2 2 0 0 Z " fill="#F3F8F7" transform="translate(198,208)"/>
<path d="M0 0 C0 2.79784711 -0.37195775 4.9790678 -1 7.6875 C-1.185625 8.49574219 -1.37125 9.30398437 -1.5625 10.13671875 C-1.706875 10.75160156 -1.85125 11.36648437 -2 12 C-2.99 12 -3.98 12 -5 12 C-4.855625 11.46375 -4.71125 10.9275 -4.5625 10.375 C-3.92757062 7.89343759 -3.92757062 7.89343759 -3.625 4.875 C-3 2 -3 2 0 0 Z " fill="#DC3A4D" transform="translate(369,152)"/>
<path d="M0 0 C3.96 0 7.92 0 12 0 C10.02 0.99 10.02 0.99 8 2 C7.360625 2.37125 6.72125 2.7425 6.0625 3.125 C3.58890178 4.17440531 1.66046462 4.14780359 -1 4 C-0.67 2.68 -0.34 1.36 0 0 Z " fill="#949B9D" transform="translate(338,151)"/>
<path d="M0 0 C1.98 0 3.96 0 6 0 C6.66 1.65 7.32 3.3 8 5 C3.48279689 5.36625971 3.48279689 5.36625971 1.1875 3.625 C0 2 0 2 0 0 Z " fill="#203A4E" transform="translate(220,278)"/>
<path d="M0 0 C0.66 0.99 1.32 1.98 2 3 C-3.625 8 -3.625 8 -7 8 C-7.66 6.68 -8.32 5.36 -9 4 C-8.34 3.34 -7.68 2.68 -7 2 C-6.34 3.32 -5.68 4.64 -5 6 C-4.34 5.01 -3.68 4.02 -3 3 C-2.34 3 -1.68 3 -1 3 C-0.67 2.01 -0.34 1.02 0 0 Z " fill="#F9D9E2" transform="translate(293,221)"/>
<path d="M0 0 C2.475 0.99 2.475 0.99 5 2 C3.68775452 5.93673644 2.08089673 8.22719294 -1 11 C-0.67 7.37 -0.34 3.74 0 0 Z " fill="#FDDADD" transform="translate(381,122)"/>
<path d="M0 0 C0.99 0.66 1.98 1.32 3 2 C3.99 2.33 4.98 2.66 6 3 C4.3125 4.5625 4.3125 4.5625 2 6 C-0.75 5.6875 -0.75 5.6875 -3 5 C-1.125 1.125 -1.125 1.125 0 0 Z " fill="#2B4763" transform="translate(208,277)"/>
<path d="M0 0 C3.875 1.75 3.875 1.75 5 4 C4.91255632 5.87862875 4.75824458 7.75455181 4.5625 9.625 C4.46066406 10.62789062 4.35882813 11.63078125 4.25390625 12.6640625 C4.17011719 13.43492187 4.08632812 14.20578125 4 15 C3.67 15 3.34 15 3 15 C2.86722656 14.08476562 2.73445312 13.16953125 2.59765625 12.2265625 C2.42105469 11.03804687 2.24445313 9.84953125 2.0625 8.625 C1.88847656 7.44164062 1.71445313 6.25828125 1.53515625 5.0390625 C1.16537214 2.09297619 1.16537214 2.09297619 0 0 Z " fill="#CFDFE6" transform="translate(156,227)"/>
<path d="M0 0 C1.32 0.33 2.64 0.66 4 1 C3.071875 1.7425 2.14375 2.485 1.1875 3.25 C-1.27126958 5.29025561 -3.21647549 7.32471323 -5 10 C-5.125 7.125 -5.125 7.125 -5 4 C-4.34 3.34 -3.68 2.68 -3 2 C-2.01 2 -1.02 2 0 2 C0 1.34 0 0.68 0 0 Z " fill="#D55464" transform="translate(320,216)"/>
<path d="M0 0 C1.125 3.75 1.125 3.75 0 6 C-0.66 6 -1.32 6 -2 6 C-2.33 7.65 -2.66 9.3 -3 11 C-3.99 10.67 -4.98 10.34 -6 10 C-4.34832443 6.4213696 -2.21713508 3.25179812 0 0 Z " fill="#DA5D69" transform="translate(349,177)"/>
<path d="M0 0 C0.33 0.66 0.66 1.32 1 2 C0.14453125 4.09375 0.14453125 4.09375 -1.1875 6.5 C-1.61417969 7.2940625 -2.04085938 8.088125 -2.48046875 8.90625 C-4.13704667 11.18883551 -5.40664227 11.97820595 -8 13 C-5.78568122 8.22173317 -3.11878714 4.21457722 0 0 Z " fill="#D86371" transform="translate(374,141)"/>
<path d="M0 0 C0.33 0.99 0.66 1.98 1 3 C3.97 3.495 3.97 3.495 7 4 C6.67 5.98 6.34 7.96 6 10 C3 9 3 9 1.9375 7.0625 C1.628125 6.381875 1.31875 5.70125 1 5 C0.34 4.34 -0.32 3.68 -1 3 C-0.67 2.01 -0.34 1.02 0 0 Z " fill="#33506D" transform="translate(177,242)"/>
<path d="M0 0 C0.90878906 0.29970703 0.90878906 0.29970703 1.8359375 0.60546875 C0.56893027 1.58958125 -0.7028244 2.56758372 -1.9765625 3.54296875 C-3.03810547 4.36087891 -3.03810547 4.36087891 -4.12109375 5.1953125 C-6.1640625 6.60546875 -6.1640625 6.60546875 -9.1640625 7.60546875 C-7.61676385 3.66689037 -4.6743802 -0.85218845 0 0 Z " fill="#FEE9E6" transform="translate(326.1640625,216.39453125)"/>
<path d="M0 0 C0 0.99 0 1.98 0 3 C-5.34883721 8 -5.34883721 8 -8 8 C-6.49776416 3.79373966 -3.71449966 2.26099979 0 0 Z " fill="#D54F62" transform="translate(319,209)"/>
<path d="M0 0 C3.93673644 1.31224548 6.22719294 2.91910327 9 6 C7.35 6.66 5.7 7.32 4 8 C2.68 5.36 1.36 2.72 0 0 Z " fill="#ECF0F0" transform="translate(272,179)"/>
<path d="M0 0 C0.33 0 0.66 0 1 0 C1.27615058 1.59987236 1.52007625 3.205333 1.75 4.8125 C1.88921875 5.70582031 2.0284375 6.59914062 2.171875 7.51953125 C2 10 2 10 0.015625 11.82421875 C-0.98210937 12.40623047 -0.98210937 12.40623047 -2 13 C-2 10 -2 10 0 8 C-0.556875 6.8553125 -0.556875 6.8553125 -1.125 5.6875 C-1.41375 4.800625 -1.7025 3.91375 -2 3 C-1.34 2.01 -0.68 1.02 0 0 Z " fill="#DD5266" transform="translate(352,173)"/>
<path d="M0 0 C0 1.65 0 3.3 0 5 C2.64 5 5.28 5 8 5 C8 5.33 8 5.66 8 6 C-1.41002278 6.18451025 -1.41002278 6.18451025 -6 5 C-1.125 0 -1.125 0 0 0 Z " fill="#FFEBE6" transform="translate(386,254)"/>
<path d="M0 0 C0.99 0.66 1.98 1.32 3 2 C2.34 2 1.68 2 1 2 C1 2.66 1 3.32 1 4 C0.01 4 -0.98 4 -2 4 C-2 4.99 -2 5.98 -2 7 C-1.34 7 -0.68 7 0 7 C-0.33 7.99 -0.66 8.98 -1 10 C-1 9.34 -1 8.68 -1 8 C-1.99 7.67 -2.98 7.34 -4 7 C-4 5.35 -4 3.7 -4 2 C-2.68 2 -1.36 2 0 2 C0 1.34 0 0.68 0 0 Z " fill="#DFDDE1" transform="translate(336,144)"/>
<path d="M0 0 C0.33 0 0.66 0 1 0 C1 1.65 1 3.3 1 5 C-1.97 5 -4.94 5 -8 5 C-8 3.68 -8 2.36 -8 1 C-7.34 1 -6.68 1 -6 1 C-6 1.66 -6 2.32 -6 3 C-4.35 3 -2.7 3 -1 3 C-0.67 2.01 -0.34 1.02 0 0 Z " fill="#CC5E6A" transform="translate(394,254)"/>
<path d="M0 0 C0.66 0.33 1.32 0.66 2 1 C2 1.66 2 2.32 2 3 C2.66 3 3.32 3 4 3 C4 4.32 4 5.64 4 7 C2.35 6.67 0.7 6.34 -1 6 C-1.042721 4.33388095 -1.04063832 2.66617115 -1 1 C-0.67 0.67 -0.34 0.34 0 0 Z " fill="#E74357" transform="translate(347,215)"/>
<path d="M0 0 C0 1.65 0 3.3 0 5 C-2.97 4.505 -2.97 4.505 -6 4 C-6.33 3.01 -6.66 2.02 -7 1 C-1.125 0 -1.125 0 0 0 Z " fill="#B9C4C3" transform="translate(302,193)"/>
<path d="M0 0 C4.75 0.75 4.75 0.75 7 3 C6.34 4.32 5.68 5.64 5 7 C2.525 6.01 2.525 6.01 0 5 C0.99 4.67 1.98 4.34 3 4 C3 3.01 3 2.02 3 1 C2.01 0.67 1.02 0.34 0 0 Z " fill="#F1E8E8" transform="translate(362,146)"/>
<path d="M0 0 C0.66 0 1.32 0 2 0 C2 0.66 2 1.32 2 2 C1.34 2 0.68 2 0 2 C-0.33 3.98 -0.66 5.96 -1 8 C-1.66 8 -2.32 8 -3 8 C-3.33 8.66 -3.66 9.32 -4 10 C-4 5.26886581 -2.8394052 3.67452438 0 0 Z " fill="#F8C9CC" transform="translate(391,128)"/>
<path d="M0 0 C0.33 0 0.66 0 1 0 C1 2.31 1 4.62 1 7 C-1.64 7 -4.28 7 -7 7 C-7 6.01 -7 5.02 -7 4 C-4.69 4.33 -2.38 4.66 0 5 C0 3.35 0 1.7 0 0 Z " fill="#CB5462" transform="translate(461,252)"/>
<path d="M0 0 C2.64 0 5.28 0 8 0 C7.67 0.66 7.34 1.32 7 2 C4.93359375 2.6328125 4.93359375 2.6328125 2.4375 3.125 C1.19806641 3.37636719 1.19806641 3.37636719 -0.06640625 3.6328125 C-0.70449219 3.75398437 -1.34257812 3.87515625 -2 4 C-1.34 2.68 -0.68 1.36 0 0 Z " fill="#EEFAFC" transform="translate(260,228)"/>
<path d="M0 0 C0.33 1.32 0.66 2.64 1 4 C0.01 4.495 0.01 4.495 -1 5 C-1.72159424 6.64363134 -2.39351421 8.31050386 -3 10 C-3.99 10 -4.98 10 -6 10 C-4.6302836 6.00499382 -2.74277578 3.19990508 0 0 Z " fill="#F8C6D0" transform="translate(351,185)"/>
<path d="M0 0 C1.0625 1.875 1.0625 1.875 2 4 C1.67 4.66 1.34 5.32 1 6 C0.34 6 -0.32 6 -1 6 C-1.66 7.32 -2.32 8.64 -3 10 C-4 7 -4 7 -3.22265625 5.17578125 C-2.1484375 3.45052083 -1.07421875 1.72526042 0 0 Z " fill="#E3E9E7" transform="translate(207,348)"/>
<path d="M0 0 C1.98 0.495 1.98 0.495 4 1 C3.67 3.31 3.34 5.62 3 8 C0.9375 6.25 0.9375 6.25 -1 4 C-0.75 1.75 -0.75 1.75 0 0 Z " fill="#2B465D" transform="translate(306,282)"/>
<path d="M0 0 C0.33 0.99 0.66 1.98 1 3 C0.2575 3.680625 0.2575 3.680625 -0.5 4.375 C-2.22609337 5.87635519 -2.22609337 5.87635519 -2 8 C-2.66 8 -3.32 8 -4 8 C-4.625 6.1875 -4.625 6.1875 -5 4 C-3 1 -3 1 0 0 Z " fill="#153351" transform="translate(198,240)"/>
<path d="M0 0 C-1.36944102 2.94956528 -2.87830409 5.52468811 -5 8 C-5.66 8 -6.32 8 -7 8 C-7 6.68 -7 5.36 -7 4 C-2.77777778 0 -2.77777778 0 0 0 Z " fill="#FCE1E0" transform="translate(296,208)"/>
<path d="M0 0 C1.98 0 3.96 0 6 0 C5.01 1.485 5.01 1.485 4 3 C4 4.32 4 5.64 4 7 C3.34 7 2.68 7 2 7 C0.5393715 4.35261084 0 3.10551666 0 0 Z " fill="#FBFDFE" transform="translate(276,201)"/>
<path d="M0 0 C1.39195915 4.17587745 -0.17676781 6.13474776 -2 10 C-2.66 9.01 -3.32 8.02 -4 7 C-2.79618552 4.50638429 -1.54571278 2.31856917 0 0 Z " fill="#FAF7F7" transform="translate(353,195)"/>
<path d="M0 0 C0.99 1.32 1.98 2.64 3 4 C2.67 4.66 2.34 5.32 2 6 C1.34 6 0.68 6 0 6 C0 6.66 0 7.32 0 8 C-0.66 8 -1.32 8 -2 8 C-2.33 8.99 -2.66 9.98 -3 11 C-3 9.35 -3 7.7 -3 6 C-2.34 6 -1.68 6 -1 6 C-0.67 4.02 -0.34 2.04 0 0 Z " fill="#DE3D4B" transform="translate(350,177)"/>
<path d="M0 0 C1.32 0 2.64 0 4 0 C4 1.32 4 2.64 4 4 C2.35 4.66 0.7 5.32 -1 6 C-1.33 5.01 -1.66 4.02 -2 3 C-1.34 3 -0.68 3 0 3 C0 2.01 0 1.02 0 0 Z " fill="#BD7791" transform="translate(329,154)"/>
<path d="M0 0 C1.45922693 0.11409593 2.91740598 0.24165544 4.375 0.375 C5.59316406 0.47941406 5.59316406 0.47941406 6.8359375 0.5859375 C9 1 9 1 11 3 C9.68 3.33 8.36 3.66 7 4 C7 3.34 7 2.68 7 2 C5.35 2.33 3.7 2.66 2 3 C1.34 2.01 0.68 1.02 0 0 Z " fill="#123854" transform="translate(206,297)"/>
<path d="M0 0 C0.56203125 0.32742187 1.1240625 0.65484375 1.703125 0.9921875 C4.26859964 2.11785494 5.96842277 2.2068111 8.75 2.125 C9.94882812 2.09792969 9.94882812 2.09792969 11.171875 2.0703125 C12.07679688 2.03550781 12.07679688 2.03550781 13 2 C13 2.66 13 3.32 13 4 C11.39592672 4.02708567 9.7917215 4.04643483 8.1875 4.0625 C6.84751953 4.07990234 6.84751953 4.07990234 5.48046875 4.09765625 C3 4 3 4 0 3 C0 2.01 0 1.02 0 0 Z " fill="#D34D5E" transform="translate(369,249)"/>
<path d="M0 0 C0.99 0 1.98 0 3 0 C3 1.65 3 3.3 3 5 C1.35 5.66 -0.3 6.32 -2 7 C-1.34 4.69 -0.68 2.38 0 0 Z " fill="#F5F9F7" transform="translate(302,194)"/>
<path d="M0 0 C0.33 0.66 0.66 1.32 1 2 C-1.31 4.97 -3.62 7.94 -6 11 C-6 7.39426104 -5.18292538 6.58663434 -3 3.8125 C-2.443125 3.09707031 -1.88625 2.38164062 -1.3125 1.64453125 C-0.879375 1.10183594 -0.44625 0.55914062 0 0 Z " fill="#C1C8C9" transform="translate(323,163)"/>
<path d="M0 0 C0.99 0.33 1.98 0.66 3 1 C0.375 5.875 0.375 5.875 -3 7 C-2.38722388 4.03824877 -1.74627478 2.61941217 0 0 Z " fill="#FDE5E9" transform="translate(385,137)"/>
<path d="M0 0 C0.33 0.66 0.66 1.32 1 2 C-0.2739589 4.03833424 -1.61061923 6.03852126 -3 8 C-3.66 8 -4.32 8 -5 8 C-3.375 2.25 -3.375 2.25 0 0 Z " fill="#E9EFED" transform="translate(103,408)"/>
<path d="M0 0 C0.66 0.33 1.32 0.66 2 1 C1.38461538 7.52307692 1.38461538 7.52307692 -0.5625 9.9375 C-1.036875 10.288125 -1.51125 10.63875 -2 11 C-1.125 3.375 -1.125 3.375 0 0 Z " fill="#3A5163" transform="translate(180,231)"/>
<path d="M0 0 C-0.928125 0.433125 -1.85625 0.86625 -2.8125 1.3125 C-5.47184073 2.72038627 -7.08105905 3.76123556 -9 6 C-9.33 4.02 -9.66 2.04 -10 0 C-6.33694766 -0.74926071 -3.57644848 -1.2380014 0 0 Z " fill="#FEE0E3" transform="translate(420,223)"/>
<path d="M0 0 C0.66 0.33 1.32 0.66 2 1 C0.68 3.31 -0.64 5.62 -2 8 C-2.66 8 -3.32 8 -4 8 C-3.50168276 4.31245243 -2.89932357 2.39509338 0 0 Z " fill="#EAF2F2" transform="translate(317,174)"/>
<path d="M0 0 C0.99 0.495 0.99 0.495 2 1 C2.4140625 3.06640625 2.4140625 3.06640625 2.625 5.5625 C2.69976562 6.38878906 2.77453125 7.21507812 2.8515625 8.06640625 C2.92503906 9.02353516 2.92503906 9.02353516 3 10 C1.51171875 8.73046875 1.51171875 8.73046875 0 7 C-0.1875 3.3125 -0.1875 3.3125 0 0 Z " fill="#FFF0EB" transform="translate(369,240)"/>
<path d="M0 0 C0.33 0 0.66 0 1 0 C1 2.64 1 5.28 1 8 C0.01 8.33 -0.98 8.66 -2 9 C-1.125 1.125 -1.125 1.125 0 0 Z " fill="#30495E" transform="translate(204,233)"/>
<path d="M0 0 C1.2065625 0.0309375 1.2065625 0.0309375 2.4375 0.0625 C2.0625 2.5 2.0625 2.5 1.4375 5.0625 C0.4475 5.5575 0.4475 5.5575 -0.5625 6.0625 C-0.5625 4.7425 -0.5625 3.4225 -0.5625 2.0625 C-1.5525 1.7325 -2.5425 1.4025 -3.5625 1.0625 C-2.5625 0.0625 -2.5625 0.0625 0 0 Z " fill="#F4E9EC" transform="translate(305.5625,191.9375)"/>
<path d="M0 0 C0.66 0.66 1.32 1.32 2 2 C0.625 4.5 0.625 4.5 -1 7 C-1.66 7 -2.32 7 -3 7 C-3 5.68 -3 4.36 -3 3 C-2.34 3 -1.68 3 -1 3 C-0.67 2.01 -0.34 1.02 0 0 Z " fill="#E8E7E8" transform="translate(265,177)"/>
<path d="M0 0 C1.2380014 3.57644848 0.74926071 6.33694766 0 10 C-2.39456443 7.60543557 -2.75546876 6.34192692 -3 3 C-1.5625 1.1875 -1.5625 1.1875 0 0 Z " fill="#F5F7FA" transform="translate(208,312)"/>
<path d="M0 0 C1.98 0.66 3.96 1.32 6 2 C5.01 2.495 5.01 2.495 4 3 C3.67 3.66 3.34 4.32 3 5 C3 4.34 3 3.68 3 3 C2.34 3 1.68 3 1 3 C0.67 3.66 0.34 4.32 0 5 C-0.66 4.34 -1.32 3.68 -2 3 C-1.34 3 -0.68 3 0 3 C0 2.01 0 1.02 0 0 Z " fill="#2D435C" transform="translate(219,275)"/>
<path d="M0 0 C0.33 0.66 0.66 1.32 1 2 C0.0625 4.125 0.0625 4.125 -1 6 C-1.99 6 -2.98 6 -4 6 C-4 5.34 -4 4.68 -4 4 C-4.66 3.67 -5.32 3.34 -6 3 C-4.02 2.01 -2.04 1.02 0 0 Z " fill="#294861" transform="translate(79,245)"/>
<path d="M0 0 C2.31 0 4.62 0 7 0 C6.01 0.66 5.02 1.32 4 2 C3.67 2.99 3.34 3.98 3 5 C2.34 5 1.68 5 1 5 C0.67 3.35 0.34 1.7 0 0 Z " fill="#1F354A" transform="translate(162,221)"/>
<path d="M0 0 C0.99 0 1.98 0 3 0 C3.33 0.66 3.66 1.32 4 2 C4.99 2 5.98 2 7 2 C6.67 2.99 6.34 3.98 6 5 C5.01 5.33 4.02 5.66 3 6 C3 5.34 3 4.68 3 4 C2.34 3.67 1.68 3.34 1 3 C1.33 2.34 1.66 1.68 2 1 C1.34 0.67 0.68 0.34 0 0 Z " fill="#DB6874" transform="translate(289,216)"/>
<path d="M0 0 C-0.5775 0.2475 -1.155 0.495 -1.75 0.75 C-4.3002997 2.16683317 -6.01785701 3.87627537 -8 6 C-8.33 5.01 -8.66 4.02 -9 3 C-6.38997624 -0.48003168 -4.1689578 -0.27793052 0 0 Z " fill="#F8E0E1" transform="translate(318,187)"/>
<path d="M0 0 C0.66 0 1.32 0 2 0 C2 0.66 2 1.32 2 2 C2.99 2.33 3.98 2.66 5 3 C2.29120665 4.35439668 -0.00933268 4.06501451 -3 4 C-1.625 2 -1.625 2 0 0 Z " fill="#F7F3F6" transform="translate(315,183)"/>
<path d="M0 0 C1.32 0 2.64 0 4 0 C4 0.99 4 1.98 4 3 C3.34 3 2.68 3 2 3 C2.33 3.99 2.66 4.98 3 6 C2.01 5.67 1.02 5.34 0 5 C0 3.35 0 1.7 0 0 Z " fill="#EEEEEF" transform="translate(274,173)"/>
<path d="M0 0 C2.475 0.495 2.475 0.495 5 1 C4.01 1.33 3.02 1.66 2 2 C2 2.99 2 3.98 2 5 C2.66 5.33 3.32 5.66 4 6 C2.68 6 1.36 6 0 6 C0 4.02 0 2.04 0 0 Z " fill="#661E36" transform="translate(266,172)"/>
<path d="M0 0 C0.33 0.66 0.66 1.32 1 2 C3.01669827 3.13350534 3.01669827 3.13350534 5 4 C4.34 4 3.68 4 3 4 C3 5.65 3 7.3 3 9 C2.731875 8.401875 2.46375 7.80375 2.1875 7.1875 C1.01506533 5.02775192 -0.19369282 3.64209744 -2 2 C-1.34 2 -0.68 2 0 2 C0 1.34 0 0.68 0 0 Z " fill="#ADA2A9" transform="translate(263,168)"/>
<path d="M0 0 C0.33 0.66 0.66 1.32 1 2 C-0.5039544 4.79305817 -2.24016054 7.36024081 -4 10 C-4.66 9.67 -5.32 9.34 -6 9 C-4.02 6.03 -2.04 3.06 0 0 Z " fill="#FAD1D8" transform="translate(370,158)"/>
<path d="M0 0 C1.32 0 2.64 0 4 0 C3.67 1.32 3.34 2.64 3 4 C1.68 4 0.36 4 -1 4 C-0.67 2.68 -0.34 1.36 0 0 Z " fill="#D4D8D9" transform="translate(207,331)"/>
<path d="M0 0 C0.33 0 0.66 0 1 0 C1 1.65 1 3.3 1 5 C1.99 5.33 2.98 5.66 4 6 C3 7 3 7 0.4375 7.0625 C-0.7690625 7.0315625 -0.7690625 7.0315625 -2 7 C-1.34 4.69 -0.68 2.38 0 0 Z " fill="#354A5F" transform="translate(301,295)"/>
<path d="M0 0 C1.65 0 3.3 0 5 0 C4 1.5 4 1.5 2 3 C-0.71846235 3.27345479 -3.25677199 3.13491285 -6 3 C-6 2.67 -6 2.34 -6 2 C-4.02 2 -2.04 2 0 2 C0 1.34 0 0.68 0 0 Z " fill="#DB616D" transform="translate(376,257)"/>
<path d="M0 0 C1.98 0 3.96 0 6 0 C6.33 0.99 6.66 1.98 7 3 C4.36 3 1.72 3 -1 3 C-0.67 2.01 -0.34 1.02 0 0 Z " fill="#FDD7DE" transform="translate(403,220)"/>
<path d="M0 0 C1.98 0.495 1.98 0.495 4 1 C3.67 2.32 3.34 3.64 3 5 C2.34 5 1.68 5 1 5 C1 4.34 1 3.68 1 3 C0.34 3 -0.32 3 -1 3 C-0.67 2.01 -0.34 1.02 0 0 Z " fill="#1E425C" transform="translate(262,220)"/>
<path d="M0 0 C0 3.99904969 -1.72586967 5.80200422 -4 9 C-4.66 8.01 -5.32 7.02 -6 6 C-4.02 4.02 -2.04 2.04 0 0 Z " fill="#F4F9F7" transform="translate(258,185)"/>
<path d="M0 0 C0.33 1.32 0.66 2.64 1 4 C-0.98 4.99 -0.98 4.99 -3 6 C-3 6.66 -3 7.32 -3 8 C-3.66 7.67 -4.32 7.34 -5 7 C-3.35 4.69 -1.7 2.38 0 0 Z " fill="#D96167" transform="translate(359,163)"/>
</svg>
