<svg id="svg" version="1.1" viewBox="0 0 300 300" width="300" height="300" xmlns="http://www.w3.org/2000/svg"><svg xmlns="http://www.w3.org/2000/svg"><defs><clipPath id="clip-1"><rect x="0" y="0" transform="scale(0.14648,0.14648)" width="2048" height="2048" fill="none"/></clipPath></defs><g clip-path="url(#clip-1)" fill="none" fill-rule="nonzero" stroke="none" stroke-width="1" stroke-linecap="butt" stroke-linejoin="miter" stroke-miterlimit="10" stroke-dasharray="" stroke-dashoffset="0" font-family="none" font-weight="none" font-size="none" text-anchor="none" style="mix-blend-mode: normal"><path d="M0,0h300v300h-300z" fill="#ffffff"/><path d="M197.21777,121.78579c7.48096,-0.64175 13.99512,1.95 15.85986,9.72422l-6.53174,0.00322c-0.22998,-0.44312 -0.49951,-0.92798 -0.77197,-1.34927c-2.42432,-3.80215 -8.57812,-4.05322 -12.10986,-1.75942c-5.3291,3.47563 -5.73047,12.68188 -1.99951,17.39121c3.40137,4.29507 11.74512,4.31851 14.62793,-0.60498c0.94043,-1.60591 1.18359,-2.76929 1.51758,-4.59712c-2.7041,-0.05171 -5.40967,-0.07412 -8.11377,-0.06724c-0.00146,-0.97896 -0.07764,-3.50669 0.09082,-4.30518l0.28857,-0.13638l13.55566,0.01509l0.01318,17.53286l-5.32031,0.01611c-0.20215,-1.2583 -0.31641,-2.8623 -0.44385,-4.1543c-2.31738,2.80518 -4.06934,4.07959 -7.79004,4.55859c-15.48193,1.99072 -21.67236,-16.10171 -13.32422,-27.10928c2.47119,-3.25898 6.41455,-4.77305 10.45166,-5.15815z" fill="#e00d10"/><path d="M35.11919,121.79077c7.08369,-0.62139 13.53003,2.44043 15.22866,9.72378l-6.53804,0.00322c-1.92832,-4.97607 -8.57505,-5.72417 -12.67046,-3.15835c-5.11011,3.20127 -5.7085,11.93027 -2.55586,16.62993c1.22476,1.8334 3.13213,3.10049 5.29702,3.51943c6.22046,1.21582 10.08149,-1.85742 11.18584,-7.90825c-2.44336,-0.12158 -5.44321,-0.03486 -7.92686,-0.02754c-0.01377,-0.90659 -0.19629,-3.91846 0.24434,-4.45342c4.46777,-0.05024 8.97773,-0.01699 13.44888,-0.01362l-0.00498,17.10938h-5.24282c-0.07441,-1.26416 -0.25283,-2.72314 -0.3772,-3.99756l-0.0854,0.10693c-2.22715,2.75244 -4.25229,4.0415 -7.81157,4.42383c-9.1626,0.94629 -15.85122,-4.94238 -16.49854,-14.06265c-0.68379,-9.63149 4.29111,-17.10937 14.30698,-17.89512z" fill="#031e42"/><path d="M244.59668,60.63911l0.24902,0.06958c0.12012,0.67134 -1.99219,13.97197 -2.18115,15.26895c-1.42676,-1.04253 -2.92383,-2.25659 -4.32422,-3.35493c-3.44824,4.4811 -7.2832,10.15063 -10.63623,14.81235l-20.89893,29.03511l-15.76758,-3.36943c-6.31641,7.00591 -12.66064,14.73809 -18.73682,21.99229l-0.62988,-1.69922l-0.84668,-2.48584c2.01855,-2.09956 4.67285,-5.40762 6.62256,-7.69453c4.02832,-4.74595 8.10059,-9.45557 12.21387,-14.12813c5.15771,1.08135 10.30371,2.21631 15.43799,3.40459c9.82178,-14.10894 20.07275,-28.15093 30.06445,-42.16406c-1.59229,-1.14873 -3.19336,-2.28472 -4.80322,-3.40767c4.68164,-2.13618 9.51855,-4.19883 14.23682,-6.27905z" fill="#e00d10"/><path d="M79.39409,130.97227c6.24858,-0.88345 12.02842,3.47139 12.9022,9.72144c0.87378,6.25063 -3.49014,12.02358 -9.7415,12.88784c-6.2376,0.86133 -11.99517,-3.49072 -12.86704,-9.727c-0.87188,-6.23628 3.47139,-12.00059 9.70635,-12.88228z" fill="#031e42"/><path d="M80.61929,135.82251c6.54009,-0.44268 7.77437,9.31216 2.98008,12.24829c-0.53159,0.3252 -1.21479,0.48633 -1.81699,0.646c-6.14443,0.08496 -7.73936,-5.96587 -5.04272,-10.70889c0.74106,-1.30342 2.42446,-1.95806 3.87964,-2.1854z" fill="#ffffff"/><path d="M93.43374,131.43809l5.64771,-0.02476c0.68203,3.46787 1.81758,6.98848 2.55439,10.46367c0.35698,1.68384 0.82998,3.52324 1.31909,5.16694c0.25547,-0.76553 0.48384,-1.58965 0.69331,-2.37217c1.18418,-4.42339 2.57109,-8.81851 3.71133,-13.25083l6.26953,0.00073c1.23984,4.9541 3.02212,10.63535 4.44595,15.60322c1.34458,-4.82505 2.68022,-10.66919 3.89429,-15.59121c1.87456,-0.01553 3.74941,-0.00996 5.62383,0.0167c-0.58799,1.86885 -1.16323,3.7415 -1.72588,5.61812l-4.76221,16.11606l-5.86421,-0.01025c-1.12983,-4.53369 -3.3252,-11.82231 -4.78271,-16.28013c-1.46323,5.40234 -3.19614,10.8895 -4.72075,16.28745l-5.8314,-0.01611c-2.07202,-7.25669 -4.3749,-14.47031 -6.47227,-21.72744z" fill="#031e42"/><path d="M146.4772,121.38472l5.65708,-0.01772c-0.03369,4.48315 -0.02344,8.96631 0.0293,13.44932c0.33545,-0.49365 0.71045,-0.96006 1.11914,-1.39482c3.01758,-3.1582 9.18018,-3.51021 12.29883,-0.36431c2.99121,3.0186 2.50195,8.11333 2.49609,12.02783l-0.0249,8.08491l-5.62207,0.02344c-0.05127,-2.82568 -0.01465,-5.81396 -0.01904,-8.6499c0.02783,-3.54917 0.49072,-8.95854 -4.69775,-8.9146c-1.43115,0.01216 -2.83008,0.56367 -3.8584,1.57544c-0.65479,0.64468 -1.125,1.45342 -1.36084,2.34155c-0.60352,2.3105 -0.37207,10.74712 -0.36475,13.63579c-1.88818,-0.00732 -3.77783,-0.00293 -5.66646,0.01172z" fill="#031e42"/><path d="M275.26904,131.42036l5.84912,-0.00981l0.00879,8.38872l-0.01465,13.81304l-5.35693,0.02783c-0.0542,-1.29785 -0.15234,-2.45801 -0.27393,-3.75146c-3.15088,4.9834 -9.73828,5.67188 -13.8208,2.07129c-3.83936,-3.38525 -2.67187,-15.63398 -2.65576,-20.53433l5.82275,-0.01509l-0.01465,8.35225c-0.00439,3.60308 -0.58887,9.63809 4.86914,9.58975c1.32275,-0.01172 2.72021,-0.51562 3.65918,-1.47803c2.43018,-2.49243 1.94531,-6.6561 1.94092,-9.86396z" fill="#e00d10"/><path d="M216.87305,131.41758l5.80225,-0.00615l-0.00879,8.37905c-0.00586,3.62798 -0.5376,9.54595 4.63184,9.53716c6.50244,-0.01025 5.85352,-7.29448 5.82422,-11.57725c-0.0249,-2.10806 -0.02051,-4.21655 0.01465,-6.32446l5.79639,-0.00879l-0.00439,8.45845l-0.00732,13.72939c-1.74902,0.03516 -3.49805,0.04102 -5.24854,0.01611c-0.15527,-1.23047 -0.27539,-2.46533 -0.35889,-3.70312c-1.83545,2.74658 -3.79687,4.09717 -7.16895,4.22607c-6.19189,0.23877 -9.22852,-3.62549 -9.271,-9.52412c-0.03076,-4.38823 -0.01758,-8.81045 -0.00146,-13.20234z" fill="#e00d10"/><path d="M82.46528,164.24707c3.47622,0.09375 8.79067,-0.61963 11.52861,1.79883c3.77622,3.33545 3.60278,9.69727 0.55723,13.38428c-3.20977,2.9209 -7.87778,2.24854 -12.09976,2.23975z" fill="#031e42"/><path d="M85.56621,166.85742c5.52773,-0.01611 8.4709,0.71777 7.95,7.45459c-0.09873,1.27588 -0.60161,2.29102 -1.37109,3.30615c-2.17192,1.72119 -3.92959,1.44434 -6.57803,1.42822z" fill="#ffffff"/><path d="M132.46187,125.45552c1.6147,-0.03486 3.33721,-0.00513 4.96011,-0.00117l0.00952,5.95078l5.88516,0.03193c-0.01816,1.477 0.01392,3.00879 0.02446,4.49019l-5.91738,-0.01069c0.00776,2.27344 0.01011,4.73423 -0.01479,6.99741c-0.05845,5.3165 0.87979,5.60947 5.84121,5.37803l0.00059,3.09961l-0.01348,1.77393c-3.92212,0.06592 -10.1814,0.1875 -11.0729,-4.62744c-0.65347,-3.5313 -0.3561,-8.92749 -0.34116,-12.6208l-3.59282,0.00894c-0.02944,-1.46455 -0.00513,-3.03706 -0.00615,-4.50952l3.55767,-0.00864c0.1541,-1.88701 0.45483,-4.05176 0.67998,-5.95254z" fill="#031e42"/><path d="M255.21533,130.98354c0.62988,-0.05376 1.36377,-0.06431 2.00391,-0.09009c0.0293,1.95249 0,3.97646 -0.00293,5.93481l-0.29883,-0.00674c-2.23535,-0.03809 -4.5542,0.00806 -6.2373,1.70596c-2.05225,2.06968 -1.71533,5.26304 -1.71973,7.92319c-0.00439,2.4082 0.01758,4.77979 0.02783,7.16895c-1.91602,-0.0249 -3.92139,0.01611 -5.84326,0.02783l-0.00439,-2.07275l0.03809,-20.14219l5.30566,-0.03237c0.10693,1.39805 0.2915,2.86128 0.44678,4.25991c0.12891,-0.225 0.26514,-0.44648 0.40723,-0.66416c1.604,-2.46563 3.01611,-3.39111 5.87695,-4.01235z" fill="#e00d10"/><path d="M66.47021,130.99731c0.4812,-0.06284 1.19795,-0.08086 1.70068,-0.10972c-0.02329,1.94048 -0.02842,3.8811 -0.01523,5.82173c-0.16099,-0.00615 -0.32197,-0.01128 -0.48296,-0.01553c-7.33096,-0.19922 -7.74507,3.87876 -7.5665,9.89165c0.0624,2.10059 0.0167,4.46924 -0.00439,6.57715l-5.74702,0.03076l-0.00542,-2.1167l0.00161,-19.67007l5.27344,0.01172c0.09287,1.39219 0.23203,2.82773 0.34863,4.22227c1.979,-2.85381 2.89526,-3.90791 6.49717,-4.64326z" fill="#031e42"/><path d="M126.53965,164.24121c4.26357,-0.44385 7.62246,0.81885 8.8604,5.26025l-3.32827,0.06299c-0.55093,-1.02393 -1.29727,-1.96143 -2.43486,-2.30713c-3.26411,-0.81299 -5.57944,0.49805 -6.53525,3.78809c-1.75503,6.03955 4.94971,11.39355 8.89585,5.37744c0.30571,-0.46582 0.51577,-1.48828 0.65742,-2.09473c-1.42324,-0.03369 -2.90845,-0.01904 -4.33711,-0.0249c-0.00864,-0.71484 -0.0813,-1.75488 0.10635,-2.4082l7.28452,0.01611c0.05801,3.21973 0.00688,6.51709 0.0312,9.75439l-2.79624,0.00879l-0.28228,-2.49609c-2.40718,3.03955 -6.04893,3.25195 -9.30542,1.43408c-4.13379,-2.30713 -4.69351,-9.19482 -2.24546,-12.89941c1.35117,-2.04346 3.09009,-2.9751 5.42915,-3.47168z" fill="#031e42"/><path d="M185.53564,164.27197l3.59473,-0.01611c1.84424,5.69971 4.13232,11.74072 6.18457,17.40967h-3.44092c-0.37646,-1.03564 -0.70459,-2.72754 -1.43408,-3.50977c-0.31494,-0.33838 -0.98437,-0.2417 -1.5,-0.24463l-4.98047,0.02197c-0.42773,1.24219 -0.84668,2.48877 -1.25537,3.73828l-3.33105,-0.0249z" fill="#031e42"/><path d="M187.19824,168.08936c0.52734,0.87305 2.17676,6.18457 2.53857,7.31104l-2.49316,0.01611l-2.47412,-0.00732c0.85986,-2.42432 1.66846,-4.86475 2.42871,-7.31982z" fill="#ffffff"/><path d="M122.16387,198.91699c-0.37896,-2.20898 -2.227,-9.61963 -2.17646,-11.22363l0.10547,-0.02197c0.75908,1.47656 1.80688,7.43848 2.43691,9.59619c0.04409,-0.73828 0.11016,-1.47656 0.19819,-2.21045c0.02915,0.59619 -0.01729,1.16602 0.29839,1.65527c-0.01875,0.97998 -0.25181,1.91309 0.64351,2.46826c0.15674,0.00732 0.31362,0.01318 0.47036,0.02051c4.15986,-3.26221 11.32324,-8.63965 15.24961,-11.52832c0.52017,0.01611 0.30835,-0.07764 0.67046,0.25635c-0.00088,0.09961 -0.00176,0.19922 -0.00264,0.29736c-4.93989,6.87891 -17.28647,23.68066 -21.55811,29.76416c-2.55908,-0.46582 -5.45654,-0.78223 -8.06396,-1.15283l-17.88237,-2.55322c-3.03311,-0.42334 -6.61216,-0.80566 -9.57319,-1.32129c-6.06357,8.72754 -12.80244,17.57813 -19.03828,26.24854c-2.10703,2.9751 -4.23911,5.93262 -6.39595,8.87256c-0.56353,0.78223 -2.54766,4.0415 -3.32798,4.01367c-0.09976,-0.95801 25.79019,-36.36621 28.50059,-39.89941c2.97627,0.25049 7.15269,0.95654 10.20908,1.37549l25.23823,3.56104c3.29736,-4.33154 6.90571,-9.51123 10.10728,-13.9585l10.07139,-13.75342c-1.48154,0.94189 -2.91211,2.05518 -4.31543,3.11572c-3.12363,2.35986 -6.25151,4.72412 -9.33018,7.14111c-0.20859,0.16406 -0.37896,0.72217 -0.50361,0.95654c-0.40708,1.44873 -2.79902,1.229 -2.7895,-0.2915c-0.00381,-0.73535 0.24902,-0.90381 0.7582,-1.42822z" fill="#c0d3d8"/><path d="M159.5376,164.28369l11.83887,-0.02344l-0.01611,2.59131l-5.00684,0.00146l0.02051,10.7959l-0.01172,4.00781l-3.08789,0.01758l0.01465,-14.81836l-4.97754,-0.00293c0.00146,-0.77197 -0.17725,-1.64355 0.09961,-2.30273c0.44385,-0.37061 0.38525,-0.24463 1.12646,-0.2666z" fill="#031e42"/><path d="M204.37939,164.2749h3.10107l-0.01611,14.76855l7.48682,0.01172l-0.00293,2.61328c-3.50098,-0.04541 -7.08398,-0.00439 -10.59082,-0.00146z" fill="#031e42"/><path d="M103.59009,115.63359c1.14404,0.11528 8.15742,1.2731 8.67979,1.76748c-0.01172,1.47656 0.54375,1.11958 1.6708,2.17295l0.05215,1.98618c4.52461,0.45103 9.27334,0.68687 13.79663,0.72935c0.16084,0.00146 0.17944,0.25679 0.2187,0.38643l-0.12656,0.22837c-0.25415,0.0873 -11.91929,-0.87539 -13.77671,-0.72686l-0.13916,0.20991l0.15337,0.31025l-0.24653,0.46743c-0.08306,-0.01289 -0.01699,-0.00996 -0.26294,0.02607c0.61172,0.71968 2.63877,2.03525 2.47134,2.81982l-0.34526,0.10854c-0.44326,-0.06738 -2.85688,-2.24648 -3.56763,-2.71538c-1.29946,0.11309 -2.27051,0.23159 -3.52676,-0.21826c-0.53892,0.62739 -1.06084,1.48916 -1.9563,1.42192c-0.55898,-0.52251 -2.72227,-7.79355 -3.09492,-8.97422z" fill="#c0d3d8"/><path d="M168.41309,116.34141c-0.84961,-1.55859 -6.23437,-10.62437 -6.06885,-11.62661c0.86279,0.63252 6.06006,9.99844 6.88916,11.65854l0.26221,0.42173c0.75,1.3645 1.53076,2.88032 2.33496,4.2082c0.45264,0.74648 1.43408,0.22236 1.24219,1.60957c-0.29883,0.41382 -0.2666,0.39492 -0.73828,0.58843c-0.19482,-0.03018 -0.43506,-0.06724 -0.72217,-0.11147c-1.25684,0.50654 -2.94873,1.42207 -4.18213,1.82271l-0.21826,0.16743c-1.02979,0.40444 -3.37939,1.77246 -4.28027,1.54863l0.03662,-0.22529c0.46729,-0.5209 3.12451,-1.51245 3.9375,-1.86621c-1.28027,-2.05854 -2.61182,-3.97075 -3.48633,-6.23525c-1.16016,-0.34175 -2.44922,0.97954 -3.05566,0.06855c0.3999,-0.27832 0.44678,-0.26646 0.65918,-0.71675c0.76025,0.70474 1.97754,0.14502 2.93115,-0.0999c0.23291,-0.27788 0.58154,-0.77769 0.81006,-1.08267c1.27881,-0.17271 2.87402,0.50991 3.64893,-0.12964z" fill="#ffffff"/><path d="M168.41309,116.34141c-0.84961,-1.55859 -6.23437,-10.62437 -6.06885,-11.62661c0.86279,0.63252 6.06006,9.99844 6.88916,11.65854l0.26221,0.42173c0.75,1.3645 1.53076,2.88032 2.33496,4.2082c0.45264,0.74648 1.43408,0.22236 1.24219,1.60957c-0.29883,0.41382 -0.2666,0.39492 -0.73828,0.58843c-0.19482,-0.03018 -0.43506,-0.06724 -0.72217,-0.11147c-1.25684,0.50654 -2.94873,1.42207 -4.18213,1.82271l-0.21826,0.16743c-1.02979,0.40444 -3.37939,1.77246 -4.28027,1.54863l0.03662,-0.22529c0.46729,-0.5209 3.12451,-1.51245 3.9375,-1.86621l0.23145,-0.02168c1.0752,-0.71279 3.51123,-1.52461 4.25537,-2.43003c0.14502,-0.81504 -2.05371,-4.1606 -2.65723,-5.21191z" fill="#76929e"/><path d="M168.41309,116.34141l0.32227,0.53203c-0.58301,0.12393 -1.04883,0.22251 -1.6377,0.29956c-1.72559,1.63638 -2.05371,0.31274 -3.27246,0.88345l-0.40576,0.24536c-1.16016,-0.34175 -2.44922,0.97954 -3.05566,0.06855c0.3999,-0.27832 0.44678,-0.26646 0.65918,-0.71675c0.76025,0.70474 1.97754,0.14502 2.93115,-0.0999c0.23291,-0.27788 0.58154,-0.77769 0.81006,-1.08267c1.27881,-0.17271 2.87402,0.50991 3.64893,-0.12964z" fill="#e1e9eb"/><path d="M163.8252,118.05645c0.64307,1.07007 3.10693,5.41787 3.31201,6.45894l-0.23145,0.02168c-1.28027,-2.05854 -2.61182,-3.97075 -3.48633,-6.23525z" fill="#c0d3d8"/><path d="M219.65479,102.61216l0.26953,0.10371l0.12451,0.3375c-0.03662,0.68599 -0.45557,0.90615 -0.82324,1.44785c-0.58447,0.8647 0.20068,1.53325 -0.15234,2.50151c-0.17432,0.06475 -0.33545,0.12349 -0.51416,0.18135l-0.13477,0.04263c-0.65625,1.64414 -1.40918,5.35649 -1.87207,7.20483l0.19043,0.07544l0.27686,0.11426c0.97705,0.39478 1.604,0.94336 1.86768,2.0146c0.16406,0.6564 0.04688,1.35146 -0.3252,1.91704c-0.68115,1.05278 -1.5498,1.21377 -2.66602,1.42427c-2.47705,-1.32319 -3.73242,-1.20586 -6.51416,-1.72778c0.04834,-0.38525 4.85449,-8.41011 5.47998,-9.46143c0.60059,1.4042 1.03857,2.76519 1.47363,4.2252c0.33398,-1.24497 1.3623,-4.86841 1.39307,-6.01963c-0.23877,-0.15132 -0.479,-0.30103 -0.7207,-0.44941c-0.01904,-0.80786 1.89697,-2.83389 2.54004,-3.77388z" fill="#eddddd"/><path d="M214.65527,110.13721c0.27393,0.48604 1.20264,3.52456 1.43994,4.2627c-3.15381,1.6144 -1.84131,2.78364 -2.42139,3.78384c-0.42627,0.23335 -0.94629,0.0813 -1.45312,0.0082c-0.62695,-0.12012 -1.49121,-0.14209 -2.14746,-0.17974c1.53076,-2.33057 3.09814,-5.37759 4.58203,-7.875z" fill="#ffffff"/><path d="M187.64648,195.11133c-3.07031,-0.71338 -29.19287,-6.4585 -29.69092,-6.82764c1.05469,-0.44092 22.90723,5.07715 25.65527,5.45068c0.87012,0.11865 3.07617,0.84668 4.17773,0.91846l0.37354,-0.60498l0.25049,-0.38232l0.26221,-0.24463c2.79639,-2.37744 6.79248,-0.1333 6.18164,3.00586c-0.20947,1.03125 -0.8291,1.93213 -1.71533,2.49609c-3.02197,1.94385 -5.55908,-0.43066 -5.49463,-3.81152z" fill="#c0d3d8"/><path d="M106.79868,164.25439l3.02095,0.05566l-0.00234,17.35254l-3.02051,-0.01465c-0.06724,-5.73486 -0.04277,-11.65869 0.0019,-17.39355z" fill="#031e42"/><path d="M146.05708,164.26025l2.95269,0.00146l0.00586,17.41406l-2.97979,-0.0249z" fill="#031e42"/><path d="M178.84277,114.95566c-2.03174,-1.86504 -15.02637,-10.0645 -15.3501,-11.05356c-0.03369,0.03091 0.18457,-0.26309 0.32666,-0.17739c5.2207,3.14414 10.11035,7.07051 15.30615,10.30107c0,0 1.10303,-0.05537 1.12646,-0.05654c0.34424,-0.248 2.30566,-3.14414 2.70996,-3.70898l9.32813,-13.08267c0.67383,-0.9416 3.19336,-4.92847 3.91113,-5.11611c0.25781,0.62388 -3.22119,5.16475 -3.71777,5.8667l-10.2583,14.46519c-0.12744,0.18076 -1.41504,2.01079 -1.4209,2.0855c-0.09082,0.9479 0.40869,1.0998 -0.8042,1.67842l-0.32373,0.01802c-0.46143,-0.30483 -0.55518,-0.46992 -0.89209,-0.89692z" fill="#76929e"/><path d="M198.04248,86.38403c1.64355,-0.37324 3.27979,0.64937 3.66504,2.29028c0.38672,1.64077 -0.62402,3.28535 -2.26172,3.68306c-1.65527,0.40181 -3.3208,-0.62168 -3.71045,-2.27988c-0.38965,-1.6582 0.646,-3.31626 2.30713,-3.69346z" fill="#e00d10"/><path d="M198.66211,88.28027c0.60205,-0.02109 1.11475,0.43433 1.16602,1.03521c0.0498,0.60073 -0.37939,1.1354 -0.97705,1.21523c-0.41309,0.05508 -0.82324,-0.12187 -1.06787,-0.4604c-0.24316,-0.33853 -0.27979,-0.78369 -0.09668,-1.15811c0.18311,-0.37441 0.55811,-0.61729 0.97559,-0.63193z" fill="#ffffff"/><path d="M151.3916,93.3104c1.3667,0.26748 5.47559,1.77905 7.01074,2.31211c-0.46436,0.82222 -0.78955,1.35103 -1.33008,2.12388c0.63721,0.65786 1.95557,1.33154 2.02441,2.15479l-0.50537,0.51519c-0.27539,-0.00615 -2.02734,-1.37534 -2.4126,-1.65439c-0.79541,0.69873 -1.21289,1.16499 -2.16504,1.64253c-0.46289,-1.21963 -2.53711,-6.0939 -2.62207,-7.09409z" fill="#76929e"/><path d="M199.13379,76.1332c0.47461,0.60146 2.74219,5.8002 2.96338,6.70591l-0.32373,0.31655c-0.67383,0.25649 -1.33594,0.13462 -2.07422,0.08408c-0.03223,0.63105 -0.06738,2.04653 -0.36035,2.54766c-0.51416,-0.01934 -0.57129,0.04614 -0.98145,-0.19175c-0.34277,-0.6728 -0.21387,-1.60034 -0.23145,-2.45317l-2.35107,-0.19614c0.87305,-2.15552 2.30859,-4.61733 3.35889,-6.81313z" fill="#76929e"/><path d="M195.23877,90.40986c0.14795,0.07295 0.17285,0.1355 0.29736,0.26748l-0.13037,0.25854c-0.70898,0.45132 -6.19336,2.15947 -7.43262,2.5667c-7.83252,2.59863 -15.6958,5.1085 -23.58691,7.529c-0.28564,-0.29326 -0.19922,-0.12363 -0.27246,-0.52529c0.76758,-0.8231 26.354,-8.18892 28.8457,-9.43169c0.24023,-0.11909 1.90576,-0.57803 2.2793,-0.66475z" fill="#c0d3d8"/><path d="M160.4502,109.88569l0.41016,0.04307c3.01904,1.19619 1.33447,1.78799 1.66846,3.92988c0.07178,0.46172 0.22266,0.89121 0.10986,1.3459l-0.13477,0.10327c-0.55518,-0.22632 -0.80859,-0.63091 -1.11621,-1.11489c0.03955,1.52974 0.07471,1.95981 -0.36475,3.46069c-0.2124,0.45029 -0.25928,0.43843 -0.65918,0.71675c0.10254,-0.80684 0.22998,-3.15937 -0.23291,-3.77124l-0.21533,-0.01523l-0.01758,0.16289c-0.06152,0.49175 -0.04248,0.63999 -0.33691,1.0418c0.08203,-0.70752 0.17578,-1.23501 -0.06445,-1.91104c-0.78955,0.61875 -0.86279,2.86655 -1.99658,3.26689l-0.24756,-0.18677c-0.09229,-0.73872 1.09863,-2.60244 1.52197,-3.55107c-1.01953,-1.91821 -0.31641,-2.9335 1.67578,-3.5209z" fill="#c0d3d8"/><path d="M160.68018,99.26689c1.48096,-0.26382 2.896,0.72158 3.16113,2.20181c0.26514,1.48022 -0.71777,2.8957 -2.19873,3.16289c-1.48242,0.26748 -2.90039,-0.71821 -3.16553,-2.20078c-0.2666,-1.48257 0.7207,-2.89966 2.20313,-3.16392z" fill="#e00d10"/><path d="M160.97461,100.99922c0.51709,-0.13198 1.0459,0.17285 1.18945,0.68672c0.14502,0.51401 -0.14648,1.04927 -0.65771,1.20615c-0.34131,0.10503 -0.71191,0.0167 -0.96973,-0.23057c-0.25781,-0.24741 -0.36035,-0.61479 -0.26953,-0.96006c0.09082,-0.34526 0.36182,-0.61406 0.70752,-0.70225z" fill="#ffffff"/><path d="M218.81982,83.59937c0.7251,0.05977 1.41211,0.25181 1.58496,1.07197c0.07471,0.35186 -0.0249,0.71807 -0.2666,0.98438c-0.80566,0.89004 -1.81787,-0.25093 -3.13916,0.04087c-3.60205,0.79556 -7.34033,1.73569 -10.97168,2.33408c-0.43066,1.06597 -0.61084,1.39526 -1.76514,1.66128c-3.06885,-1.58833 -0.63867,-4.61191 1.56592,-2.41523c3.49951,-0.51577 8.50342,-1.71182 12.0542,-2.45566c0.3457,-0.63589 0.41455,-0.71895 0.9375,-1.22168z" fill="#76929e"/><path d="M196.83252,92.46943c0.47754,0.08657 0.29297,-0.03018 0.62695,0.25283c0.00879,-0.20479 -6.94922,13.04619 -7.84424,13.80117c-1.42969,1.20747 -5.15625,5.25806 -6.69727,6.89839l-0.01904,0.10415l-0.1626,0.0457c0.27832,-0.90615 3.42188,-4.4521 4.26563,-5.63818c3.55957,-5.0042 6.854,-10.09351 9.83057,-15.46406z" fill="#c0d3d8"/><path d="M198.35449,92.8043l0.25195,0.17988c0.2373,0.67573 -0.92725,14.12842 -1.05469,15.83423c-0.39551,-0.19702 -0.27979,-0.08364 -0.51416,-0.4374c0.20947,-3.49307 0.46582,-6.9832 0.76904,-10.46938c0.08496,-1.05952 0.28125,-4.2561 0.54785,-5.10732z" fill="#76929e"/><path d="M201.82324,90.52046c1.46338,-0.04087 9.9126,4.80322 11.98828,5.69048c0.45264,0.19321 0.38379,0.26821 0.46436,0.6104c-0.16992,0.04219 -0.38086,0.13564 -0.53027,0.04629c-1.58203,-0.94614 -11.34668,-5.37612 -11.92236,-6.34717z" fill="#c0d3d8"/><path d="M187.78857,194.65283c-0.91553,-1.44727 -9.72217,-6.20801 -10.03271,-6.89209l0.30469,-0.06592c1.02246,0.24023 8.99707,5.48291 10.10156,6.35303z" fill="#c0d3d8"/><path d="M114.11909,122.69766c3.05845,0.52148 9.86455,2.00771 12.81987,2.88354l0.06665,0.11675c-2.67275,0.00454 -7.34399,-1.6084 -10.13892,-2.05225c-0.91099,-0.14473 -2.04185,-0.50449 -2.99414,-0.48062z" fill="#c0d3d8"/><path d="M159.56104,115.78857c0.29443,-0.40181 0.27539,-0.55005 0.33691,-1.0418l0.01758,-0.16289l0.21533,0.01523c0.02637,1.33228 -0.86719,10.28628 -1.3374,11.25527c-0.06152,-2.35283 0.54932,-7.50601 0.76758,-10.06582z" fill="#c0d3d8"/><path d="M179.67627,116.17529l0.32373,-0.01802c-0.42773,0.93105 -4.06494,6.25562 -4.86182,6.39155l-0.02637,-0.24609c0.56689,-1.16045 3.61963,-5.25718 4.56445,-6.12744z" fill="#c0d3d8"/><path d="M178.84277,114.95566l-0.05859,0.32271c-1.37842,0.29106 -8.62061,1.20879 -9.28857,1.5167l-0.26221,-0.42173c0.53906,-0.05273 9.45703,-1.34575 9.60938,-1.41768z" fill="#c0d3d8"/><path d="M188.4126,193.66553c-1.43262,-1.87939 -3.20361,-3.92725 -4.49414,-5.85937l0.11572,-0.13916l0.44092,0.17871c0.90381,1.18506 3.77637,4.46045 4.19971,5.5752z" fill="#c0d3d8"/><path d="M122.72798,195.05713c0.06416,-1.40186 0.43726,-6.13916 0.81768,-7.31543c0.17007,0.85547 -0.43477,7.61572 -0.51929,8.9707c-0.31567,-0.48926 -0.26924,-1.05908 -0.29839,-1.65527z" fill="#c0d3d8"/><path d="M173.06836,124.60854l0.17285,0.14546c-0.15088,0.73389 -2.22949,2.92017 -2.83887,3.60088c-0.13623,-0.13462 -0.07324,-0.04175 -0.11865,-0.31509c0.73242,-1.05 1.86768,-2.56934 2.78467,-3.43125z" fill="#c0d3d8"/><path d="M160.4502,109.88569c0.06885,-1.09995 0.12012,-3.58506 0.37354,-4.47305l0.15674,-0.09155c0.30322,0.93955 -0.24316,3.03926 -0.12012,4.60767z" fill="#c0d3d8"/><path d="M167.21191,125.07993l0.21826,-0.16743c0.49219,0.72935 1.30811,1.88203 1.61719,2.67935l-0.15527,0.2751l0.20801,-0.12539l-0.01172,0.28257c-0.74707,-0.52705 -1.44727,-2.10366 -1.87646,-2.94419z" fill="#c0d3d8"/><path d="M174.47314,122.9688l0.22705,0.11587c-0.07178,0.41689 -0.40137,0.70811 -0.68994,1.04575l-0.20215,0.05815l-0.06885,-0.16919z" fill="#e1e9eb"/></g></svg></svg>